<?xml version="1.0" standalone="no"?><!DOCTYPE svg PUBLIC "-//W3C//DTD SVG 1.1//EN" "http://www.w3.org/Graphics/SVG/1.1/DTD/svg11.dtd" ><svg xmlns="http://www.w3.org/2000/svg"><metadata></metadata><defs><font id="Lineto: BrownStd-Regular: 2011" horiz-adv-x="1390"><font-face font-family="BrownStd" font-weight="400" font-stretch="normal" units-per-em="1000" panose-1="0 1 5 0 1 1 1 1 1 1" ascent="960" descent="-250" x-height="1" bbox="-85 -250 1370 930" underline-thickness="80" underline-position="-380" unicode-range="U+0000-fb04" /><missing-glyph horiz-adv-x="539" d="M75 0 l0 700 l389 0 l0 -700 l-389 0 ZM170 610 l0 -520 l199 0 l0 520 l-199 0 Z" /><glyph glyph-name=".null" unicode="" d="" /><glyph glyph-name="nonmarkingreturn" unicode="" d="" /><glyph glyph-name="space" unicode=" " d="" /><glyph glyph-name="exclam" unicode="!" d="M138 220 l-15 250 l0 230 l95 0 l0 -230 l-15 -250 l-65 0 ZM120.5 10.5 q-20.5 20.5 -20.5 49.5 q0 29 20.5 49.5 q20.5 20.5 49.5 20.5 q29 0 49.5 -20.5 q20.5 -20.5 20.5 -49.5 q0 -29 -20.5 -49.5 q-20.5 -20.5 -49.5 -20.5 q-29 0 -49.5 20.5 Z" /><glyph glyph-name="quotedbl" unicode="&quot;" d="M95 450 l-15 250 l95 0 l-15 -250 l-65 0 ZM300 450 l-15 250 l95 0 l-15 -250 l-65 0 Z" /><glyph glyph-name="numbersign" unicode="#" d="M537 195 l-127 0 l-53 -195 l-93 0 l53 195 l-137 0 l-53 -195 l-93 0 l53 195 l-102 0 l0 90 l126 0 l34 130 l-103 0 l0 90 l127 0 l53 195 l93 0 l-53 -195 l137 0 l53 195 l93 0 l-53 -195 l103 0 l0 -90 l-127 0 l-34 -130 l103 0 l0 -90 ZM238 415 l-34 -130 l137 0 l34 130 l-137 0 Z" /><glyph glyph-name="dollar" unicode="$" d="M270 85 q50 0 86 29.5 q36 29.5 36 75.5 q0 48 -36.5 77 q-36.5 29 -106 56.5 q-69.5 27.5 -98.5 46.5 q-89 59 -89 154 q0 66 46 117 q46 51 119 64 l0 110 l95 0 l0 -109 q77 -13 140 -66 l-59 -73 q-57 48 -125 48 q-47 0 -81.5 -25.5 q-34.5 -25.5 -34.5 -68.5 q0 -40 37 -66.5 q37 -26.5 104.5 -54 q67.5 -27.5 97.5 -47.5 q91 -60 91 -160 q0 -78 -47.5 -131.5 q-47.5 -53.5 -122.5 -67.5 l0 -109 l-95 0 l0 109 q-119 17 -197 113 l69 68 q74 -90 171 -90 Z" /><glyph glyph-name="percent" unicode="%" d="M316 0 l-96 0 l409 700 l96 0 l-409 -700 ZM368.5 656 q51.5 -54 51.5 -131 q0 -77 -51.5 -131 q-51.5 -54 -128.5 -54 q-77 0 -128.5 54 q-51.5 54 -51.5 131 q0 77 51.5 131 q51.5 54 128.5 54 q77 0 128.5 -54 ZM175 596 q-25 -29 -25 -71 q0 -42 25 -71 q25 -29 65 -29 q40 0 65 29 q25 29 25 71 q0 42 -25 71 q-25 29 -65 29 q-40 0 -65 -29 ZM833.5 306 q51.5 -54 51.5 -131 q0 -77 -51.5 -131 q-51.5 -54 -128.5 -54 q-77 0 -128.5 54 q-51.5 54 -51.5 131 q0 77 51.5 131 q51.5 54 128.5 54 q77 0 128.5 -54 ZM640 246 q-25 -29 -25 -71 q0 -42 25 -71 q25 -29 65 -29 q40 0 65 29 q25 29 25 71 q0 42 -25 71 q-25 29 -65 29 q-40 0 -65 -29 Z" /><glyph glyph-name="ampersand" unicode="&amp;" d="M541 143 l144 -143 l-128 0 l-71 70 q-85 -80 -210 -80 q-106 0 -176 59 q-70 59 -70 155 q0 67 32.5 113.5 q32.5 46.5 89.5 89.5 q-77 81 -77 146 q0 65 45.5 111 q45.5 46 115.5 46 q63 0 110.5 -44 q47.5 -44 47.5 -113 q0 -51 -26 -89.5 q-26 -38.5 -73 -74.5 l175 -175 q15 39 15 84 q0 65 -18 119 l90 25 q23 -65 23 -144 q0 -83 -39 -155 ZM125 204 q0 -55 42.5 -89.5 q42.5 -34.5 108.5 -34.5 q86 0 144 56 l-204 205 q-91 -62 -91 -137 ZM299 553 q0 28 -18.5 47.5 q-18.5 19.5 -44.5 19.5 q-30 0 -48 -20 q-18 -20 -18 -47 q0 -39 58 -99 q71 54 71 99 Z" /><glyph glyph-name="quotesingle" unicode="&#39;" d="M95 450 l-15 250 l95 0 l-15 -250 l-65 0 Z" /><glyph glyph-name="parenleft" unicode="(" d="M375 657 q-130 -183 -130 -407 q0 -224 130 -407 l-77 -53 q-148 207 -148 460 q0 253 148 460 l77 -53 Z" /><glyph glyph-name="parenright" unicode=")" d="M70 -157 q130 183 130 407 q0 224 -130 407 l77 53 q148 -207 148 -460 q0 -253 -148 -460 l-77 53 Z" /><glyph glyph-name="asterisk" unicode="*" d="M40 518 l24 75 l146 -47 l0 154 l80 0 l0 -153 l146 48 l25 -76 l-147 -48 l91 -124 l-64 -47 l-91 125 l-90 -125 l-64 46 l90 125 l-146 47 Z" /><glyph glyph-name="plus" unicode="+" d="M50 305 l175 0 l0 175 l90 0 l0 -175 l175 0 l0 -90 l-175 0 l0 -175 l-90 0 l0 175 l-175 0 l0 90 Z" /><glyph glyph-name="comma" unicode="," d="M120 120 l110 0 l-120 -260 l-65 0 l75 260 Z" /><glyph glyph-name="hyphen" unicode="-" d="M80 295 l300 0 l0 -80 l-300 0 l0 80 Z" /><glyph glyph-name="period" unicode="." d="M130.5 10.5 q-20.5 20.5 -20.5 49.5 q0 29 20.5 49.5 q20.5 20.5 49.5 20.5 q29 0 49.5 -20.5 q20.5 -20.5 20.5 -49.5 q0 -29 -20.5 -49.5 q-20.5 -20.5 -49.5 -20.5 q-29 0 -49.5 20.5 Z" /><glyph glyph-name="slash" unicode="/" d="M104 0 l-99 0 l326 700 l99 0 l-326 -700 Z" /><glyph glyph-name="zero" unicode="0" d="M295 85 q140 0 140 265 q0 265 -140 265 q-140 0 -140 -265 q0 -265 140 -265 ZM68 209.5 q-13 63.5 -13 140.5 q0 77 13 140.5 q13 63.5 41 113.5 q28 50 75 78 q47 28 111 28 q64 0 111 -28 q47 -28 75 -78 q28 -50 41 -113.5 q13 -63.5 13 -140.5 q0 -77 -13 -140.5 q-13 -63.5 -41 -113.5 q-28 -50 -75 -78 q-47 -28 -111 -28 q-64 0 -111 28 q-47 28 -75 78 q-28 50 -41 113.5 Z" /><glyph glyph-name="one" unicode="1" d="M185 575 l-135 -68 l0 99 l165 94 l70 0 l0 -700 l-100 0 l0 575 Z" /><glyph glyph-name="two" unicode="2" d="M125 522 l-89 29 q17 61 56.5 99 q39.5 38 76 49 q36.5 11 73.5 11 q90 0 151.5 -62 q61.5 -62 61.5 -149 q0 -102 -91 -205 l-176 -199 l267 0 l0 -95 l-420 0 l0 65 l239 273 q45 51 63 85 q18 34 18 76 q0 47 -31.5 81.5 q-31.5 34.5 -79.5 34.5 q-88 0 -119 -93 Z" /><glyph glyph-name="three" unicode="3" d="M25 110 l83 48 q17 -33 53 -53 q36 -20 79 -20 q60 0 102.5 41.5 q42.5 41.5 42.5 103.5 q0 63 -42.5 104 q-42.5 41 -108.5 41 q-41 0 -81 -11 l0 65 l149 176 l-242 0 l0 95 l390 0 l0 -65 l-154 -177 q80 -12 134.5 -76.5 q54.5 -64.5 54.5 -151.5 q0 -102 -70 -171 q-70 -69 -169 -69 q-73 0 -132 31 q-59 31 -89 89 Z" /><glyph glyph-name="four" unicode="4" d="M15 170 l0 65 l360 465 l70 0 l0 -435 l110 0 l0 -95 l-110 0 l0 -170 l-100 0 l0 170 l-330 0 ZM157 265 l188 0 l0 236 l-188 -236 Z" /><glyph glyph-name="five" unicode="5" d="M446 605 l-246 0 l-20 -147 q36 12 66 12 q102 0 170.5 -70.5 q68.5 -70.5 68.5 -169.5 q0 -99 -69 -169.5 q-69 -70.5 -171 -70.5 q-64 0 -118 27 q-54 27 -87 73 l76 59 q49 -64 130 -64 q62 0 100.5 42 q38.5 42 38.5 103 q0 61 -39.5 103 q-39.5 42 -102.5 42 q-63 0 -106 -40 l-69 10 l50 355 l328 0 l0 -95 Z" /><glyph glyph-name="six" unicode="6" d="M189 338 q-35 -54 -35 -108 q0 -62 41 -103.5 q41 -41.5 102 -41.5 q62 0 102.5 41.5 q40.5 41.5 40.5 101.5 q0 60 -40.5 103.5 q-40.5 43.5 -100.5 43.5 q-71 0 -110 -37 ZM423 700 l-153 -235 q13 2 38 2 q97 0 164.5 -68 q67.5 -68 67.5 -169 q0 -101 -69.5 -170.5 q-69.5 -69.5 -173.5 -69.5 q-105 0 -173.5 69 q-68.5 69 -68.5 168 q0 55 23 107 q19 44 66 114 l166 252 l113 0 Z" /><glyph glyph-name="seven" unicode="7" d="M172 0 l-107 0 l300 605 l-320 0 l0 95 l440 0 l0 -65 l-313 -635 Z" /><glyph glyph-name="eight" unicode="8" d="M460.5 54.5 q-69.5 -64.5 -170.5 -64.5 q-101 0 -170.5 64.5 q-69.5 64.5 -69.5 157.5 q0 59 31 108 q31 49 80 75 q-29 20 -47.5 56 q-18.5 36 -18.5 74 q0 77 56 131 q56 54 139 54 q83 0 139 -54 q56 -54 56 -131 q0 -38 -18.5 -74 q-18.5 -36 -47.5 -56 q49 -26 80 -75 q31 -49 31 -108 q0 -93 -69.5 -157.5 ZM390 303 q-40 37 -100 37 q-60 0 -100 -37 q-40 -37 -40 -91 q0 -54 40 -90.5 q40 -36.5 100 -36.5 q60 0 100 36.5 q40 36.5 40 90.5 q0 54 -40 91 ZM358 589 q-27 26 -68 26 q-41 0 -68 -26 q-27 -26 -27 -64 q0 -38 27 -64 q27 -26 68 -26 q41 0 68 26 q27 26 27 64 q0 38 -27 64 Z" /><glyph glyph-name="nine" unicode="9" d="M396 362 q35 54 35 108 q0 62 -41 103.5 q-41 41.5 -102 41.5 q-62 0 -102.5 -41.5 q-40.5 -41.5 -40.5 -101.5 q0 -60 40.5 -103.5 q40.5 -43.5 100.5 -43.5 q71 0 110 37 ZM162 0 l153 235 q-13 -2 -38 -2 q-97 0 -164.5 68 q-67.5 68 -67.5 169 q0 101 69.5 170.5 q69.5 69.5 173.5 69.5 q104 0 173 -69 q69 -69 69 -168 q0 -55 -23 -107 q-19 -44 -66 -114 l-166 -252 l-113 0 Z" /><glyph glyph-name="colon" unicode=":" d="M130.5 360.5 q-20.5 20.5 -20.5 49.5 q0 29 20.5 49.5 q20.5 20.5 49.5 20.5 q29 0 49.5 -20.5 q20.5 -20.5 20.5 -49.5 q0 -29 -20.5 -49.5 q-20.5 -20.5 -49.5 -20.5 q-29 0 -49.5 20.5 ZM130.5 10.5 q-20.5 20.5 -20.5 49.5 q0 29 20.5 49.5 q20.5 20.5 49.5 20.5 q29 0 49.5 -20.5 q20.5 -20.5 20.5 -49.5 q0 -29 -20.5 -49.5 q-20.5 -20.5 -49.5 -20.5 q-29 0 -49.5 20.5 Z" /><glyph glyph-name="semicolon" unicode=";" d="M130.5 360.5 q-20.5 20.5 -20.5 49.5 q0 29 20.5 49.5 q20.5 20.5 49.5 20.5 q29 0 49.5 -20.5 q20.5 -20.5 20.5 -49.5 q0 -29 -20.5 -49.5 q-20.5 -20.5 -49.5 -20.5 q-29 0 -49.5 20.5 ZM120 120 l110 0 l-120 -260 l-65 0 l75 260 Z" /><glyph glyph-name="less" unicode="&lt;" d="M209 260 l281 -120 l0 -98 l-440 188 l0 60 l440 188 l0 -98 l-281 -120 Z" /><glyph glyph-name="equal" unicode="=" d="M50 395 l440 0 l0 -90 l-440 0 l0 90 ZM50 215 l440 0 l0 -90 l-440 0 l0 90 Z" /><glyph glyph-name="greater" unicode="&gt;" d="M55 140 l281 120 l-281 120 l0 98 l440 -188 l0 -60 l-440 -188 l0 98 Z" /><glyph glyph-name="question" unicode="?" d="M155 544 l-90 26 q15 61 71 100.5 q56 39.5 128 39.5 q84 0 140 -53 q56 -53 56 -129 q0 -43 -18 -79.5 q-18 -36.5 -43.5 -61 q-25.5 -24.5 -51 -43.5 q-25.5 -19 -43.5 -36 q-18 -17 -18 -31 q0 -19 26 -42 l-63 -66 q-58 44 -58 107 q0 34 18 62.5 q18 28.5 43.5 49 q25.5 20.5 51 40 q25.5 19.5 43.5 45 q18 25.5 18 55.5 q0 39 -28.5 65.5 q-28.5 26.5 -72.5 26.5 q-39 0 -70 -22 q-31 -22 -39 -54 ZM210.5 10.5 q-20.5 20.5 -20.5 49.5 q0 29 20.5 49.5 q20.5 20.5 49.5 20.5 q29 0 49.5 -20.5 q20.5 -20.5 20.5 -49.5 q0 -29 -20.5 -49.5 q-20.5 -20.5 -49.5 -20.5 q-29 0 -49.5 20.5 Z" /><glyph glyph-name="at" unicode="@" d="M591 170 l0 165 q-41 45 -103 45 q-49 0 -85 -34 q-36 -34 -36 -96 q0 -63 36.5 -96.5 q36.5 -33.5 86.5 -33.5 q51 0 101 50 ZM713 -36 l47 -70 q-109 -84 -253 -84 q-181 0 -309 129 q-128 129 -128 311 q0 182 128 311 q128 129 309 129 q117 0 213 -49.5 q96 -49.5 153 -142 q57 -92.5 57 -208.5 q0 -109 -49.5 -182 q-49.5 -73 -142.5 -73 q-83 0 -124 59 q-47 -59 -138 -59 q-79 0 -139 58 q-60 58 -60 157 q0 99 60.5 157 q60.5 58 141.5 58 q70 0 117 -44 l0 34 l85 0 l0 -243 q0 -44 10 -62 q18 -30 54 -30 q46 0 71.5 46.5 q25.5 46.5 25.5 125.5 q0 136 -95.5 224.5 q-95.5 88.5 -239.5 88.5 q-144 0 -245.5 -104 q-101.5 -104 -101.5 -251 q0 -147 101.5 -251 q101.5 -104 245.5 -104 q113 0 206 69 Z" /><glyph glyph-name="A" unicode="a" d="M551 0 l-74 180 l-295 0 l-73 -180 l-104 0 l290 700 l70 0 l290 -700 l-104 0 ZM330 535 l-108 -260 l216 0 l-108 260 Z" /><glyph glyph-name="B" unicode="b" d="M190 95 l152 0 q79 0 115 36 q33 35 33 82 q0 46 -33 81 q-36 36 -115 36 l-152 0 l0 -235 ZM190 425 l120 0 q70 0 96 29 q24 26 24 61 q0 35 -24 61 q-26 29 -96 29 l-120 0 l0 -180 ZM360 0 l-270 0 l0 700 l238 0 q90 0 144 -49 q58 -53 58 -133 q0 -73 -55 -125 q51 -25 83 -75.5 q32 -50.5 32 -108.5 q0 -100 -77 -162 q-56 -47 -153 -47 Z" /><glyph glyph-name="C" unicode="c" d="M35 350 q0 152 101.5 256 q101.5 104 252.5 104 q75 0 142.5 -28.5 q67.5 -28.5 113.5 -79.5 l-67 -66 q-32 35 -83 57 q-51 22 -106 22 q-108 0 -181 -76 q-73 -76 -73 -189 q0 -117 75 -191 q75 -74 188 -74 q119 0 201 99 l71 -64 q-46 -59 -119 -94.5 q-73 -35.5 -153 -35.5 q-157 0 -260 102.5 q-103 102.5 -103 257.5 Z" /><glyph glyph-name="D" unicode="d" d="M495 154 q85 75 85 196 q0 121 -85 196 q-68 59 -200 59 l-105 0 l0 -510 l105 0 q132 0 200 59 ZM300 0 l-210 0 l0 700 l210 0 q150 0 240 -66 q65 -49 102.5 -123.5 q37.5 -74.5 37.5 -160.5 q0 -86 -37 -161 q-37 -75 -102 -123 q-90 -66 -241 -66 Z" /><glyph glyph-name="E" unicode="e" d="M190 425 l230 0 l0 -95 l-230 0 l0 -235 l310 0 l0 -95 l-410 0 l0 700 l400 0 l0 -95 l-300 0 l0 -180 Z" /><glyph glyph-name="F" unicode="f" d="M190 425 l230 0 l0 -95 l-230 0 l0 -330 l-100 0 l0 700 l400 0 l0 -95 l-300 0 l0 -180 Z" /><glyph glyph-name="G" unicode="g" d="M670 425 l0 -305 q-46 -58 -119.5 -94 q-73.5 -36 -152.5 -36 q-157 0 -260 102.5 q-103 102.5 -103 257.5 q0 152 101.5 256 q101.5 104 252.5 104 q75 0 142.5 -28.5 q67.5 -28.5 113.5 -79.5 l-67 -66 q-32 35 -83 57 q-51 22 -106 22 q-108 0 -181 -76 q-73 -76 -73 -189 q0 -117 75 -191 q75 -74 188 -74 q107 0 172 65 l0 180 l-200 0 l0 95 l300 0 Z" /><glyph glyph-name="H" unicode="h" d="M580 0 l0 330 l-390 0 l0 -330 l-100 0 l0 700 l100 0 l0 -275 l390 0 l0 275 l100 0 l0 -700 l-100 0 Z" /><glyph glyph-name="I" unicode="i" d="M90 0 l0 700 l100 0 l0 -700 l-100 0 Z" /><glyph glyph-name="J" unicode="j" d="M0 103 l89 38 q12 -26 37 -41 q25 -15 56 -15 q50 0 79 39 q19 25 19 79 l0 497 l100 0 l0 -490 q0 -76 -24 -119 q-26 -46 -72.5 -73.5 q-46.5 -27.5 -101.5 -27.5 q-61 0 -110.5 30 q-49.5 30 -71.5 83 Z" /><glyph glyph-name="K" unicode="k" d="M90 0 l0 700 l100 0 l0 -295 l288 295 l132 0 l-316 -325 l336 -375 l-128 0 l-312 350 l0 -350 l-100 0 Z" /><glyph glyph-name="L" unicode="l" d="M190 700 l0 -605 l310 0 l0 -95 l-410 0 l0 700 l100 0 Z" /><glyph glyph-name="M" unicode="m" d="M670 471 l-205 -321 l-70 0 l-205 321 l0 -471 l-100 0 l0 700 l70 0 l270 -427 l270 427 l70 0 l0 -700 l-100 0 l0 471 Z" /><glyph glyph-name="N" unicode="n" d="M610 0 l-420 514 l0 -514 l-100 0 l0 700 l70 0 l420 -514 l0 514 l100 0 l0 -700 l-70 0 Z" /><glyph glyph-name="O" unicode="o" d="M135.5 93.5 q-100.5 103.5 -100.5 256.5 q0 153 100.5 256.5 q100.5 103.5 249.5 103.5 q149 0 249.5 -103.5 q100.5 -103.5 100.5 -256.5 q0 -153 -100.5 -256.5 q-100.5 -103.5 -249.5 -103.5 q-149 0 -249.5 103.5 ZM135 350 q0 -114 71.5 -189.5 q71.5 -75.5 178.5 -75.5 q107 0 178.5 75.5 q71.5 75.5 71.5 189.5 q0 113 -71.5 189 q-71.5 76 -178.5 76 q-107 0 -178.5 -76 q-71.5 -76 -71.5 -189 Z" /><glyph glyph-name="P" unicode="p" d="M190 405 l160 0 q63 0 92 31 q28 30 28 69 q0 39 -28 69 q-29 31 -92 31 l-160 0 l0 -200 ZM355 310 l-165 0 l0 -310 l-100 0 l0 700 l265 0 q92 0 146 -46 q69 -59 69 -149 q0 -90 -69 -149 q-54 -46 -146 -46 Z" /><glyph glyph-name="Q" unicode="q" d="M135.5 93.5 q-100.5 103.5 -100.5 256.5 q0 153 100.5 256.5 q100.5 103.5 249.5 103.5 q149 0 249.5 -103.5 q100.5 -103.5 100.5 -256.5 q0 -136 -83 -237 l103 -113 l-124 0 l-47 51 q-88 -61 -199 -61 q-149 0 -249.5 103.5 ZM135 350 q0 -114 71.5 -189.5 q71.5 -75.5 178.5 -75.5 q74 0 134 38 l-168 187 l70 60 l164 -183 q50 71 50 163 q0 113 -71.5 189 q-71.5 76 -178.5 76 q-107 0 -178.5 -76 q-71.5 -76 -71.5 -189 Z" /><glyph glyph-name="R" unicode="r" d="M270 330 l-80 0 l0 -330 l-100 0 l0 700 l245 0 q86 0 136 -41 q69 -56 69 -144 q0 -88 -69 -144 q-35 -29 -82 -37 l251 -334 l-121 0 l-249 330 ZM190 425 l140 0 q58 0 84 26 q26 26 26 64 q0 38 -26 64 q-26 26 -84 26 l-140 0 l0 -180 Z" /><glyph glyph-name="S" unicode="s" d="M30 107 l69 68 q74 -90 171 -90 q50 0 86 29.5 q36 29.5 36 75.5 q0 48 -36.5 77 q-36.5 29 -106 56.5 q-69.5 27.5 -98.5 46.5 q-89 59 -89 154 q0 77 60.5 131.5 q60.5 54.5 151.5 54.5 q104 0 188 -70 l-59 -73 q-57 48 -125 48 q-47 0 -81.5 -25.5 q-34.5 -25.5 -34.5 -68.5 q0 -40 37 -66.5 q37 -26.5 104.5 -54 q67.5 -27.5 97.5 -47.5 q91 -60 91 -160 q0 -91 -62 -147 q-62 -56 -155 -56 q-148 0 -245 117 Z" /><glyph glyph-name="T" unicode="t" d="M15 605 l0 95 l480 0 l0 -95 l-190 0 l0 -605 l-100 0 l0 605 l-190 0 Z" /><glyph glyph-name="U" unicode="u" d="M587 82 q-86 -92 -217 -92 q-131 0 -217 92 q-73 79 -73 208 l0 410 l100 0 l0 -415 q0 -89 44 -138 q56 -62 146 -62 q90 0 146 62 q44 49 44 138 l0 415 l100 0 l0 -410 q0 -129 -73 -208 Z" /><glyph glyph-name="V" unicode="v" d="M630 700 l-275 -700 l-70 0 l-275 700 l104 0 l206 -528 l206 528 l104 0 Z" /><glyph glyph-name="W" unicode="w" d="M475 518 l-175 -518 l-70 0 l-220 700 l102 0 l157 -507 l171 507 l70 0 l171 -507 l157 507 l102 0 l-220 -700 l-70 0 l-175 518 Z" /><glyph glyph-name="X" unicode="x" d="M133 0 l-118 0 l249 383 l-209 317 l123 0 l151 -233 l152 233 l123 0 l-210 -317 l250 -383 l-118 0 l-197 299 l-196 -299 Z" /><glyph glyph-name="Y" unicode="y" d="M590 700 l-240 -380 l0 -320 l-100 0 l0 320 l-240 380 l112 0 l178 -281 l178 281 l112 0 Z" /><glyph glyph-name="Z" unicode="z" d="M70 605 l0 95 l470 0 l0 -65 l-364 -540 l384 0 l0 -95 l-520 0 l0 65 l366 540 l-336 0 Z" /><glyph glyph-name="bracketleft" unicode="[" d="M150 -200 l0 900 l245 0 l0 -90 l-150 0 l0 -720 l150 0 l0 -90 l-245 0 Z" /><glyph glyph-name="backslash" unicode="\" d="M430 0 l-99 0 l-326 700 l99 0 l326 -700 Z" /><glyph glyph-name="bracketright" unicode="]" d="M295 700 l0 -900 l-245 0 l0 90 l150 0 l0 720 l-150 0 l0 90 l245 0 Z" /><glyph glyph-name="asciicircum" unicode="^" d="M160 350 l-100 0 l177 350 l66 0 l177 -350 l-100 0 l-110 217 l-110 -217 Z" /><glyph glyph-name="underscore" unicode="_" d="M20 0 l450 0 l0 -80 l-450 0 l0 80 Z" /><glyph glyph-name="grave" unicode="`" d="M240 550 l-65 0 l-105 150 l105 0 l65 -150 Z" /><glyph glyph-name="a" unicode="a" d="M428 0 l0 43 q-59 -53 -145 -53 q-66 0 -118 31 q-55 32 -87.5 88.5 q-32.5 56.5 -32.5 125.5 q0 69 33 126 q33 57 88 89 q51 30 115 30 q85 0 147 -53 l0 43 l92 0 l0 -470 l-92 0 ZM425 147 l0 176 q-51 67 -134 67 q-66 0 -108.5 -45.5 q-42.5 -45.5 -42.5 -109.5 q0 -64 44.5 -109.5 q44.5 -45.5 111.5 -45.5 q79 0 129 67 Z" /><glyph glyph-name="b" unicode="b" d="M177 43 l0 -43 l-92 0 l0 710 l95 0 l0 -281 q61 51 144 51 q64 0 115 -30 q55 -32 88 -89 q33 -57 33 -126 q0 -69 -32.5 -125.5 q-32.5 -56.5 -87.5 -88.5 q-52 -31 -118 -31 q-86 0 -145 53 ZM180 323 l0 -176 q50 -67 129 -67 q67 0 111.5 45.5 q44.5 45.5 44.5 109.5 q0 64 -42.5 109.5 q-42.5 45.5 -108.5 45.5 q-83 0 -134 -67 Z" /><glyph glyph-name="c" unicode="c" d="M432 153 l73 -53 q-29 -49 -87 -79.5 q-58 -30.5 -122 -30.5 q-108 0 -179.5 70 q-71.5 70 -71.5 175 q0 105 70 175 q70 70 175 70 q60 0 113 -27.5 q53 -27.5 87 -74.5 l-70 -59 q-51 71 -130 71 q-64 0 -107 -44 q-43 -44 -43 -111 q0 -69 44 -112 q44 -43 112 -43 q81 0 136 73 Z" /><glyph glyph-name="d" unicode="d" d="M428 0 l0 43 q-59 -53 -145 -53 q-66 0 -118 31 q-55 32 -87.5 88.5 q-32.5 56.5 -32.5 125.5 q0 69 33 126 q33 57 88 89 q51 30 115 30 q83 0 144 -51 l0 281 l95 0 l0 -710 l-92 0 ZM425 147 l0 176 q-51 67 -134 67 q-66 0 -108.5 -45.5 q-42.5 -45.5 -42.5 -109.5 q0 -64 44.5 -109.5 q44.5 -45.5 111.5 -45.5 q79 0 129 67 Z" /><glyph glyph-name="e" unicode="e" d="M499 215 l-362 0 q4 -60 47.5 -101 q43.5 -41 104.5 -41 q77 0 135 64 l62 -59 q-29 -38 -80 -63 q-51 -25 -118 -25 q-103 0 -173 70 q-70 70 -70 175 q0 106 64.5 175.5 q64.5 69.5 164.5 69.5 q98 0 162 -70 q64 -70 64 -175 q0 -11 -1 -20 ZM277 397 q-46 0 -83 -28.5 q-37 -28.5 -49 -73.5 l256 0 q-10 44 -45.5 73 q-35.5 29 -78.5 29 Z" /><glyph glyph-name="f" unicode="f" d="M375 713 l-20 -87 q-14 4 -35 4 q-47 0 -72 -33 q-18 -24 -18 -84 l0 -43 l145 0 l0 -85 l-145 0 l0 -385 l-95 0 l0 385 l-110 0 l0 85 l110 0 l0 40 q0 89 30 132 q54 78 154 78 q33 0 56 -7 Z" /><glyph glyph-name="g" unicode="g" d="M425 41 q-59 -51 -142 -51 q-66 0 -118 31 q-55 32 -87.5 88.5 q-32.5 56.5 -32.5 125.5 q0 69 33 126 q33 57 88 89 q51 30 115 30 q85 0 147 -53 l0 43 l92 0 l0 -450 q0 -99 -28 -154 q-29 -55 -81.5 -85.5 q-52.5 -30.5 -121.5 -30.5 q-83 0 -142.5 33 q-59.5 33 -86.5 76 l70 65 q63 -84 155 -84 q79 0 114 54 q26 40 26 121 l0 26 ZM425 147 l0 176 q-51 67 -134 67 q-66 0 -108.5 -45.5 q-42.5 -45.5 -42.5 -109.5 q0 -64 44.5 -109.5 q44.5 -45.5 111.5 -45.5 q79 0 129 67 Z" /><glyph glyph-name="h" unicode="h" d="M180 710 l0 -281 q60 51 138 51 q106 0 171 -83 q46 -58 46 -167 l0 -230 l-95 0 l0 235 q0 74 -28 109 q-36 46 -97 46 q-80 0 -135 -67 l0 -323 l-95 0 l0 710 l95 0 Z" /><glyph glyph-name="i" unicode="i" d="M85 0 l0 470 l95 0 l0 -470 l-95 0 ZM88 593 q-18 18 -18 44 q0 26 18 44.5 q18 18.5 44 18.5 q26 0 44.5 -18.5 q18.5 -18.5 18.5 -44.5 q0 -26 -18.5 -44 q-18.5 -18 -44.5 -18 q-26 0 -44 18 Z" /><glyph glyph-name="j" unicode="j" d="M108 593 q-18 18 -18 44 q0 26 18 44.5 q18 18.5 44 18.5 q26 0 44.5 -18.5 q18.5 -18.5 18.5 -44.5 q0 -26 -18.5 -44 q-18.5 -18 -44.5 -18 q-26 0 -44 18 ZM105 -43 l0 513 l95 0 l0 -510 q0 -89 -30 -132 q-54 -78 -154 -78 q-33 0 -56 7 l20 87 q14 -4 35 -4 q47 0 72 33 q18 24 18 84 Z" /><glyph glyph-name="k" unicode="k" d="M275 258 l265 -258 l-127 0 l-233 230 l0 -230 l-95 0 l0 710 l95 0 l0 -420 l196 180 l134 0 l-235 -212 Z" /><glyph glyph-name="l" unicode="l" d="M85 0 l0 710 l95 0 l0 -710 l-95 0 Z" /><glyph glyph-name="m" unicode="m" d="M85 470 l92 0 l0 -45 q18 19 56.5 37 q38.5 18 81.5 18 q101 0 166 -78 q78 78 179 78 q104 0 167 -79 q43 -53 43 -161 l0 -240 l-95 0 l0 255 q0 62 -27 94 q-34 41 -88 41 q-78 0 -143 -67 q8 -37 8 -83 l0 -240 l-95 0 l0 255 q0 62 -27 94 q-34 41 -91 41 q-75 0 -132 -67 l0 -323 l-95 0 l0 470 Z" /><glyph glyph-name="n" unicode="n" d="M177 470 l0 -45 q57 55 141 55 q106 0 171 -83 q46 -58 46 -167 l0 -230 l-95 0 l0 235 q0 74 -28 109 q-36 46 -97 46 q-80 0 -135 -67 l0 -323 l-95 0 l0 470 l92 0 Z" /><glyph glyph-name="o" unicode="o" d="M114.5 60 q-69.5 70 -69.5 175 q0 105 69.5 175 q69.5 70 173.5 70 q104 0 173.5 -70 q69.5 -70 69.5 -175 q0 -105 -69.5 -175 q-69.5 -70 -173.5 -70 q-104 0 -173.5 70 ZM182 345 q-42 -45 -42 -110 q0 -65 42 -110 q42 -45 106 -45 q64 0 106 45 q42 45 42 110 q0 65 -42 110 q-42 45 -106 45 q-64 0 -106 -45 Z" /><glyph glyph-name="p" unicode="p" d="M180 41 l0 -281 l-95 0 l0 710 l92 0 l0 -43 q62 53 147 53 q64 0 115 -30 q55 -32 88 -89 q33 -57 33 -126 q0 -69 -32.5 -125.5 q-32.5 -56.5 -87.5 -88.5 q-52 -31 -118 -31 q-83 0 -142 51 ZM180 323 l0 -176 q50 -67 129 -67 q67 0 111.5 45.5 q44.5 45.5 44.5 109.5 q0 64 -42.5 109.5 q-42.5 45.5 -108.5 45.5 q-83 0 -134 -67 Z" /><glyph glyph-name="q" unicode="q" d="M425 41 q-59 -51 -142 -51 q-66 0 -118 31 q-55 32 -87.5 88.5 q-32.5 56.5 -32.5 125.5 q0 69 33 126 q33 57 88 89 q51 30 115 30 q85 0 147 -53 l0 43 l92 0 l0 -710 l-95 0 l0 281 ZM425 147 l0 176 q-51 67 -134 67 q-66 0 -108.5 -45.5 q-42.5 -45.5 -42.5 -109.5 q0 -64 44.5 -109.5 q44.5 -45.5 111.5 -45.5 q79 0 129 67 Z" /><glyph glyph-name="r" unicode="r" d="M355 477 l-11 -91 q-15 4 -37 4 q-36 0 -71.5 -22.5 q-35.5 -22.5 -55.5 -56.5 l0 -311 l-95 0 l0 470 l92 0 l0 -54 q19 27 56 45.5 q37 18.5 85 18.5 q20 0 37 -3 Z" /><glyph glyph-name="s" unicode="s" d="M40 55 l49 70 q67 -52 139 -52 q33 0 57.5 16.5 q24.5 16.5 24.5 42.5 q0 15 -8 26.5 q-8 11.5 -24.5 19 q-16.5 7.5 -32 12 q-15.5 4.5 -41 11 q-25.5 6.5 -41.5 11.5 q-108 36 -108 121 q0 71 52 109 q52 38 122 38 q92 0 156 -52 l-49 -68 q-49 37 -101 37 q-36 0 -60.5 -16 q-24.5 -16 -24.5 -43 q0 -22 20.5 -33 q20.5 -11 63.5 -22 q34 -9 59 -18.5 q25 -9.5 53 -26.5 q28 -17 43.5 -43.5 q15.5 -26.5 15.5 -60.5 q0 -64 -51.5 -104 q-51.5 -40 -123.5 -40 q-110 0 -190 65 Z" /><glyph glyph-name="t" unicode="t" d="M356 86 l19 -86 q-30 -10 -74 -10 q-84 0 -133 55 q-38 42 -38 125 l0 215 l-120 0 l0 85 l120 0 l0 130 l95 0 l0 -130 l150 0 l0 -85 l-150 0 l0 -220 q0 -44 14 -60 q20 -25 65 -25 q31 0 52 6 Z" /><glyph glyph-name="u" unicode="u" d="M285 -10 q-104 0 -167 79 q-43 53 -43 161 l0 240 l95 0 l0 -255 q0 -62 27 -94 q34 -41 91 -41 q75 0 132 67 l0 323 l95 0 l0 -470 l-92 0 l0 43 q-20 -20 -57 -36.5 q-37 -16.5 -81 -16.5 Z" /><glyph glyph-name="v" unicode="v" d="M214 0 l-204 470 l98 0 l139 -320 l139 320 l98 0 l-204 -470 l-66 0 Z" /><glyph glyph-name="w" unicode="w" d="M366 470 l66 0 l129 -321 l129 321 l98 0 l-191 -470 l-66 0 l-132 330 l-132 -330 l-66 0 l-191 470 l98 0 l129 -321 l129 321 Z" /><glyph glyph-name="x" unicode="x" d="M382 0 l-127 176 l-127 -176 l-113 0 l178 247 l-161 223 l112 0 l111 -152 l111 152 l112 0 l-161 -223 l178 -247 l-113 0 Z" /><glyph glyph-name="y" unicode="y" d="M185 -240 l-101 0 l127 289 l-201 421 l102 0 l147 -310 l135 310 l100 0 l-309 -710 Z" /><glyph glyph-name="z" unicode="z" d="M40 60 l258 325 l-243 0 l0 85 l375 0 l0 -60 l-259 -325 l279 0 l0 -85 l-410 0 l0 60 Z" /><glyph glyph-name="braceleft" unicode="{" d="M192 250 q53 -27 53 -103 q0 -32 -5 -89.5 q-5 -57.5 -5 -84.5 q0 -43 17 -63 q18 -20 59 -20 l34 0 l0 -90 l-30 0 q-84 0 -123 32 q-52 41 -52 135 q0 35 5 96.5 q5 61.5 5 86.5 q0 38 -18.5 54 q-18.5 16 -61.5 16 l0 60 q43 0 61.5 16 q18.5 16 18.5 54 q0 25 -5 86.5 q-5 61.5 -5 96.5 q0 94 52 135 q39 32 123 32 l30 0 l0 -90 l-34 0 q-41 0 -59 -20 q-17 -20 -17 -63 q0 -27 5 -84.5 q5 -57.5 5 -89.5 q0 -76 -53 -103 Z" /><glyph glyph-name="bar" unicode="|" d="M60 -200 l0 900 l95 0 l0 -900 l-95 0 Z" /><glyph glyph-name="braceright" unicode="}" d="M253 250 q-53 27 -53 103 q0 32 5 89.5 q5 57.5 5 84.5 q0 43 -17 63 q-18 20 -59 20 l-34 0 l0 90 l30 0 q84 0 123 -32 q52 -41 52 -135 q0 -35 -5 -96.5 q-5 -61.5 -5 -86.5 q0 -38 18.5 -54 q18.5 -16 61.5 -16 l0 -60 q-43 0 -61.5 -16 q-18.5 -16 -18.5 -54 q0 -25 5 -86.5 q5 -61.5 5 -96.5 q0 -94 -52 -135 q-39 -32 -123 -32 l-30 0 l0 90 l34 0 q41 0 59 20 q17 20 17 63 q0 27 -5 84.5 q-5 57.5 -5 89.5 q0 76 53 103 Z" /><glyph glyph-name="asciitilde" unicode="~" d="M458 338 l77 -39 q-51 -128 -152 -128 q-40 0 -78.5 22 q-38.5 22 -69.5 44 q-31 22 -54 22 q-45 0 -79 -77 l-77 39 q51 128 152 128 q40 0 78.5 -22 q38.5 -22 69.5 -44 q31 -22 54 -22 q45 0 79 77 Z" /><glyph glyph-name="nonbreakingspace" unicode=" " d="" /><glyph glyph-name="exclamdown" unicode="¡" d="M123 -10 l15 250 l65 0 l15 -250 l0 -230 l-95 0 l0 230 ZM120.5 360.5 q-20.5 20.5 -20.5 49.5 q0 29 20.5 49.5 q20.5 20.5 49.5 20.5 q29 0 49.5 -20.5 q20.5 -20.5 20.5 -49.5 q0 -29 -20.5 -49.5 q-20.5 -20.5 -49.5 -20.5 q-29 0 -49.5 20.5 Z" /><glyph glyph-name="cent" unicode="¢" d="M242 -115 l0 111 q-88 17 -142.5 82.5 q-54.5 65.5 -54.5 156.5 q0 91 55 157.5 q55 66.5 142 82.5 l0 110 l95 0 l0 -110 q95 -18 153 -97 l-70 -59 q-51 71 -130 71 q-64 0 -107 -44 q-43 -44 -43 -111 q0 -69 44 -112 q44 -43 112 -43 q81 0 136 73 l73 -53 q-25 -41 -70 -69.5 q-45 -28.5 -98 -36.5 l0 -109 l-95 0 Z" /><glyph glyph-name="sterling" unicode="£" d="M237 400 l148 0 l0 -85 l-120 0 q6 -29 6 -60 q0 -98 -58 -165 l292 0 l0 -90 l-465 0 l0 60 q63 24 99.5 81.5 q36.5 57.5 36.5 113.5 q0 26 -9 60 l-107 0 l0 85 l76 0 q-30 73 -30 124 q0 80 57.5 133 q57.5 53 135.5 53 q108 0 174 -94 l-75 -54 q-37 58 -99 58 q-38 0 -68 -27 q-30 -27 -30 -71 q0 -11 1.5 -22.5 q1.5 -11.5 6.5 -26 q5 -14.5 7.5 -22.5 q2.5 -8 10.5 -27 q8 -19 10 -24 Z" /><glyph glyph-name="currency" unicode="¤" d="M106 240 q-32 51 -32 111 q0 60 32 111 l-76 76 l63 63 l76 -76 q51 32 111 32 q60 0 111 -32 l76 76 l63 -63 l-76 -76 q32 -49 32 -111 q0 -62 -32 -111 l76 -76 l-63 -63 l-76 76 q-49 -32 -111 -32 q-62 0 -111 32 l-76 -76 l-63 63 l76 76 ZM201.5 429.5 q-32.5 -32.5 -32.5 -78.5 q0 -46 32.5 -78.5 q32.5 -32.5 78.5 -32.5 q46 0 78.5 32.5 q32.5 32.5 32.5 78.5 q0 46 -32.5 78.5 q-32.5 32.5 -78.5 32.5 q-46 0 -78.5 -32.5 Z" /><glyph glyph-name="yen" unicode="¥" d="M350 315 l190 0 l0 -85 l-190 0 l0 -230 l-100 0 l0 230 l-190 0 l0 85 l190 0 l-44 70 l-146 0 l0 85 l93 0 l-143 230 l114 0 l176 -286 l176 286 l114 0 l-144 -230 l94 0 l0 -85 l-147 0 l-43 -70 Z" /><glyph glyph-name="brokenbar" unicode="¦" d="M80 -200 l0 390 l95 0 l0 -390 l-95 0 ZM80 310 l0 390 l95 0 l0 -390 l-95 0 Z" /><glyph glyph-name="section" unicode="§" d="M92 524 q0 77 60.5 131.5 q60.5 54.5 151.5 54.5 q104 0 188 -70 l-59 -73 q-57 48 -125 48 q-47 0 -81.5 -23 q-34.5 -23 -34.5 -65 q0 -34 34 -56 q34 -22 102.5 -46.5 q68.5 -24.5 101.5 -42.5 q105 -57 105 -160 q0 -46 -25 -90 q-25 -44 -64 -73 q42 -44 42 -103 q0 -77 -60.5 -131.5 q-60.5 -54.5 -151.5 -54.5 q-104 0 -188 70 l59 73 q57 -48 125 -48 q47 0 81.5 23 q34.5 23 34.5 65 q0 34 -34 56 q-34 22 -102.5 46.5 q-68.5 24.5 -101.5 42.5 q-105 57 -105 160 q0 46 25 89.5 q25 43.5 64 73.5 q-42 40 -42 103 ZM145 262 q0 -25 12 -44 q12 -19 37 -33.5 q25 -14.5 48 -24.5 q23 -10 60.5 -24 q37.5 -14 58.5 -23 q29 14 51.5 43.5 q22.5 29.5 22.5 61.5 q0 25 -12 44 q-12 19 -37 33.5 q-25 14.5 -48 24.5 q-23 10 -60.5 23.5 q-37.5 13.5 -59.5 23.5 q-29 -15 -51 -44 q-22 -29 -22 -61 Z" /><glyph glyph-name="dieresis" unicode="¨" d="M88 573 q-18 18 -18 44 q0 26 18 44.5 q18 18.5 44 18.5 q26 0 44.5 -18.5 q18.5 -18.5 18.5 -44.5 q0 -26 -18.5 -44 q-18.5 -18 -44.5 -18 q-26 0 -44 18 ZM273 573 q-18 18 -18 44 q0 26 18 44.5 q18 18.5 44 18.5 q26 0 44.5 -18.5 q18.5 -18.5 18.5 -44.5 q0 -26 -18.5 -44 q-18.5 -18 -44.5 -18 q-26 0 -44 18 Z" /><glyph glyph-name="copyright" unicode="©" d="M556 501 l-39 -51 q-45 35 -90 35 q-52 0 -86 -37 q-34 -37 -34 -95 q0 -57 35 -95 q35 -38 91 -38 q48 0 95 36 l39 -52 q-59 -52 -136 -52 q-86 0 -141.5 57.5 q-55.5 57.5 -55.5 143.5 q0 85 55 142.5 q55 57.5 138 57.5 q72 0 129 -52 ZM172.5 102.5 q-102.5 102.5 -102.5 247.5 q0 145 102.5 247.5 q102.5 102.5 247.5 102.5 q145 0 247.5 -102.5 q102.5 -102.5 102.5 -247.5 q0 -145 -102.5 -247.5 q-102.5 -102.5 -247.5 -102.5 q-145 0 -247.5 102.5 ZM218 551.5 q-83 -83.5 -83 -201.5 q0 -118 83 -201 q83 -83 201 -83 q118 0 201.5 83 q83.5 83 83.5 201 q0 118 -83.5 201.5 q-83.5 83.5 -201.5 83.5 q-118 0 -201 -83.5 Z" /><glyph glyph-name="ordfeminine" unicode="ª" d="M292 496 l0 108 q-29 39 -77 39 q-39 0 -65 -27 q-26 -27 -26 -66 q0 -39 26 -66 q26 -27 65 -27 q48 0 77 39 ZM366 703 l0 -306 l-72 0 l0 25 q-36 -32 -90 -32 q-62 0 -108 46.5 q-46 46.5 -46 113.5 q0 67 46 113.5 q46 46.5 108 46.5 q54 0 90 -32 l0 25 l72 0 Z" /><glyph glyph-name="guillemotleft" unicode="«" d="M176 240 l154 -190 l-116 0 l-134 165 l0 50 l134 165 l116 0 l-154 -190 ZM406 240 l154 -190 l-116 0 l-134 165 l0 50 l134 165 l116 0 l-154 -190 Z" /><glyph glyph-name="logicalnot" unicode="¬" d="M480 395 l0 -270 l-90 0 l0 180 l-350 0 l0 90 l440 0 Z" /><glyph glyph-name="uni00AD" unicode="­" d="M80 295 l300 0 l0 -80 l-300 0 l0 80 Z" /><glyph glyph-name="registered" unicode="®" d="M546 438 q0 -33 -20.5 -62.5 q-20.5 -29.5 -51.5 -39.5 l122 -175 l-83 0 l-119 170 l-19 0 l0 -170 l-72 0 l0 383 l128 0 q46 0 74 -23 q41 -32 41 -83 ZM375 476 l0 -77 l50 0 q28 0 39 12 q9 11 9 26 q0 15 -9 25 q-12 14 -39 14 l-50 0 ZM172.5 102.5 q-102.5 102.5 -102.5 247.5 q0 145 102.5 247.5 q102.5 102.5 247.5 102.5 q145 0 247.5 -102.5 q102.5 -102.5 102.5 -247.5 q0 -145 -102.5 -247.5 q-102.5 -102.5 -247.5 -102.5 q-145 0 -247.5 102.5 ZM218 551.5 q-83 -83.5 -83 -201.5 q0 -118 83 -201 q83 -83 201 -83 q118 0 201.5 83 q83.5 83 83.5 201 q0 118 -83.5 201.5 q-83.5 83.5 -201.5 83.5 q-118 0 -201 -83.5 Z" /><glyph glyph-name="macron" unicode="¯" d="M70 660 l300 0 l0 -85 l-300 0 l0 85 Z" /><glyph glyph-name="degree" unicode="°" d="M87 437 q-47 47 -47 113 q0 66 47 113 q47 47 113 47 q66 0 113 -47 q47 -47 47 -113 q0 -66 -47 -113 q-47 -47 -113 -47 q-66 0 -113 47 ZM143.5 606.5 q-23.5 -23.5 -23.5 -56.5 q0 -33 23.5 -56.5 q23.5 -23.5 56.5 -23.5 q33 0 56.5 23.5 q23.5 23.5 23.5 56.5 q0 33 -23.5 56.5 q-23.5 23.5 -56.5 23.5 q-33 0 -56.5 -23.5 Z" /><glyph glyph-name="plusminus" unicode="±" d="M50 365 l175 0 l0 135 l90 0 l0 -135 l175 0 l0 -90 l-175 0 l0 -135 l-90 0 l0 135 l-175 0 l0 90 ZM50 110 l440 0 l0 -90 l-440 0 l0 90 Z" /><glyph glyph-name="twosuperior" unicode="²" d="M101 595 l-70 21 q11 43 43.5 68.5 q32.5 25.5 77.5 25.5 q50 0 86 -33 q36 -33 36 -84 q0 -47 -43 -95 l-79 -88 l124 0 l0 -70 l-246 0 l0 40 l136 152 q33 35 33 61 q0 19 -13 33 q-13 14 -34 14 q-38 0 -51 -45 Z" /><glyph glyph-name="threesuperior" unicode="³" d="M20 394 l60 38 q20 -34 58 -34 q26 0 43 17.5 q17 17.5 17 42.5 q0 25 -17 43.5 q-17 18.5 -44 18.5 q-22 0 -49 -11 l0 40 l61 81 l-115 0 l0 70 l223 0 l0 -40 l-64 -88 q35 -12 57.5 -44 q22.5 -32 22.5 -70 q0 -54 -39 -91 q-39 -37 -96 -37 q-77 0 -118 64 Z" /><glyph glyph-name="acute" unicode="´" d="M135 550 l-65 0 l65 150 l105 0 l-105 -150 Z" /><glyph glyph-name="mu" unicode="µ" d="M295 -10 q-35 0 -66.5 14 q-31.5 14 -48.5 31 l0 -275 l-95 0 l0 710 l95 0 l0 -255 q0 -62 27 -94 q34 -41 88 -41 q74 0 135 67 l0 323 l95 0 l0 -470 l-92 0 l0 43 q-20 -20 -57 -36.5 q-37 -16.5 -81 -16.5 Z" /><glyph glyph-name="paragraph" unicode="¶" d="M440 -200 l0 810 l-100 0 l0 -810 l-95 0 l0 470 q-89 0 -152 63 q-63 63 -63 152 q0 110 88 174 q57 41 147 41 l370 0 l0 -90 l-100 0 l0 -810 l-95 0 ZM159.5 573.5 q-34.5 -36.5 -34.5 -88.5 q0 -52 34.5 -88.5 q34.5 -36.5 85.5 -36.5 l0 250 q-51 0 -85.5 -36.5 Z" /><glyph glyph-name="periodcentered" unicode="·" d="M120.5 185.5 q-20.5 20.5 -20.5 49.5 q0 29 20.5 49.5 q20.5 20.5 49.5 20.5 q29 0 49.5 -20.5 q20.5 -20.5 20.5 -49.5 q0 -29 -20.5 -49.5 q-20.5 -20.5 -49.5 -20.5 q-29 0 -49.5 20.5 Z" /><glyph glyph-name="cedilla" unicode="¸" d="M140 10 l65 0 l-30 -150 l-105 0 l70 150 Z" /><glyph glyph-name="onesuperior" unicode="¹" d="M30 569 l0 75 l110 56 l45 0 l0 -360 l-75 0 l0 266 l-80 -37 Z" /><glyph glyph-name="ordmasculine" unicode="º" d="M292 549 q0 41 -23 67.5 q-23 26.5 -61 26.5 q-38 0 -61 -26.5 q-23 -26.5 -23 -67.5 q0 -40 23 -66 q23 -26 61 -26 q38 0 61 26 q23 26 23 66 ZM94.5 436.5 q-44.5 46.5 -44.5 113.5 q0 67 44.5 113.5 q44.5 46.5 113.5 46.5 q69 0 113.5 -46.5 q44.5 -46.5 44.5 -113.5 q0 -67 -44.5 -113.5 q-44.5 -46.5 -113.5 -46.5 q-69 0 -113.5 46.5 Z" /><glyph glyph-name="guillemotright" unicode="»" d="M270 50 l154 190 l-154 190 l116 0 l134 -165 l0 -50 l-134 -165 l-116 0 ZM40 50 l154 190 l-154 190 l116 0 l134 -165 l0 -50 l-134 -165 l-116 0 Z" /><glyph glyph-name="onequarter" unicode="¼" d="M151 0 l-86 0 l409 700 l86 0 l-409 -700 ZM30 569 l0 75 l110 56 l45 0 l0 -360 l-75 0 l0 266 l-80 -37 ZM511 360 l45 0 l0 -213 l61 0 l0 -70 l-61 0 l0 -77 l-75 0 l0 77 l-161 0 l0 40 l191 243 ZM431 147 l50 0 l0 66 l-50 -66 Z" /><glyph glyph-name="onehalf" unicode="½" d="M151 0 l-86 0 l409 700 l86 0 l-409 -700 ZM30 569 l0 75 l110 56 l45 0 l0 -360 l-75 0 l0 266 l-80 -37 ZM466 255 l-70 21 q11 43 43.5 68.5 q32.5 25.5 77.5 25.5 q50 0 86 -33 q36 -33 36 -84 q0 -47 -43 -95 l-79 -88 l124 0 l0 -70 l-246 0 l0 40 l136 152 q33 35 33 61 q0 19 -13 33 q-13 14 -34 14 q-38 0 -51 -45 Z" /><glyph glyph-name="threequarters" unicode="¾" d="M189 0 l-86 0 l409 700 l86 0 l-409 -700 ZM549 360 l45 0 l0 -213 l61 0 l0 -70 l-61 0 l0 -77 l-75 0 l0 77 l-161 0 l0 40 l191 243 ZM469 147 l50 0 l0 66 l-50 -66 ZM20 394 l60 38 q20 -34 58 -34 q26 0 43 17.5 q17 17.5 17 42.5 q0 25 -17 43.5 q-17 18.5 -44 18.5 q-22 0 -49 -11 l0 40 l61 81 l-115 0 l0 70 l223 0 l0 -40 l-64 -88 q35 -12 57.5 -44 q22.5 -32 22.5 -70 q0 -54 -39 -91 q-39 -37 -96 -37 q-77 0 -118 64 Z" /><glyph glyph-name="questiondown" unicode="¿" d="M345 -84 l90 -26 q-15 -61 -71 -100.5 q-56 -39.5 -128 -39.5 q-84 0 -140 53 q-56 53 -56 129 q0 43 18 79.5 q18 36.5 43.5 61 q25.5 24.5 51 43.5 q25.5 19 43.5 36 q18 17 18 31 q0 19 -26 42 l63 66 q58 -44 58 -107 q0 -34 -18 -62.5 q-18 -28.5 -43.5 -49 q-25.5 -20.5 -51 -40 q-25.5 -19.5 -43.5 -45 q-18 -25.5 -18 -55.5 q0 -39 28.5 -65.5 q28.5 -26.5 72.5 -26.5 q39 0 70 22 q31 22 39 54 ZM289.5 459.5 q20.5 -20.5 20.5 -49.5 q0 -29 -20.5 -49.5 q-20.5 -20.5 -49.5 -20.5 q-29 0 -49.5 20.5 q-20.5 20.5 -20.5 49.5 q0 29 20.5 49.5 q20.5 20.5 49.5 20.5 q29 0 49.5 -20.5 Z" /><glyph glyph-name="Agrave" unicode="à" d="M360 750 l-65 0 l-105 150 l105 0 l65 -150 ZM551 0 l-74 180 l-295 0 l-73 -180 l-104 0 l290 700 l70 0 l290 -700 l-104 0 ZM330 535 l-108 -260 l216 0 l-108 260 Z" /><glyph glyph-name="Aacute" unicode="á" d="M365 750 l-65 0 l65 150 l105 0 l-105 -150 ZM551 0 l-74 180 l-295 0 l-73 -180 l-104 0 l290 700 l70 0 l290 -700 l-104 0 ZM330 535 l-108 -260 l216 0 l-108 260 Z" /><glyph glyph-name="Acircumflex" unicode="â" d="M245 750 l-65 0 l95 150 l110 0 l95 -150 l-65 0 l-85 94 l-85 -94 ZM551 0 l-74 180 l-295 0 l-73 -180 l-104 0 l290 700 l70 0 l290 -700 l-104 0 ZM330 535 l-108 -260 l216 0 l-108 260 Z" /><glyph glyph-name="Atilde" unicode="ã" d="M551 0 l-74 180 l-295 0 l-73 -180 l-104 0 l290 700 l70 0 l290 -700 l-104 0 ZM330 535 l-108 -260 l216 0 l-108 260 ZM225 760 l-65 21 q2 46 29.5 77.5 q27.5 31.5 71.5 31.5 q27 0 72 -22.5 q45 -22.5 64 -22.5 q30 0 38 45 l65 -21 q-2 -46 -29.5 -77.5 q-27.5 -31.5 -71.5 -31.5 q-27 0 -72 22.5 q-45 22.5 -64 22.5 q-30 0 -38 -45 Z" /><glyph glyph-name="Adieresis" unicode="ä" d="M193 773 q-18 18 -18 44 q0 26 18 44.5 q18 18.5 44 18.5 q26 0 44.5 -18.5 q18.5 -18.5 18.5 -44.5 q0 -26 -18.5 -44 q-18.5 -18 -44.5 -18 q-26 0 -44 18 ZM378 773 q-18 18 -18 44 q0 26 18 44.5 q18 18.5 44 18.5 q26 0 44.5 -18.5 q18.5 -18.5 18.5 -44.5 q0 -26 -18.5 -44 q-18.5 -18 -44.5 -18 q-26 0 -44 18 ZM551 0 l-74 180 l-295 0 l-73 -180 l-104 0 l290 700 l70 0 l290 -700 l-104 0 ZM330 535 l-108 -260 l216 0 l-108 260 Z" /><glyph glyph-name="Aring" unicode="å" d="M259.5 759.5 q-29.5 29.5 -29.5 70.5 q0 41 29.5 70.5 q29.5 29.5 70.5 29.5 q41 0 70.5 -29.5 q29.5 -29.5 29.5 -70.5 q0 -41 -29.5 -70.5 q-29.5 -29.5 -70.5 -29.5 q-41 0 -70.5 29.5 ZM302 858 q-12 -12 -12 -28 q0 -16 12 -28 q12 -12 28 -12 q16 0 28 12 q12 12 12 28 q0 16 -12 28 q-12 12 -28 12 q-16 0 -28 -12 ZM551 0 l-74 180 l-295 0 l-73 -180 l-104 0 l290 700 l70 0 l290 -700 l-104 0 ZM330 535 l-108 -260 l216 0 l-108 260 Z" /><glyph glyph-name="AE" unicode="æ" d="M870 0 l-410 0 l0 180 l-258 0 l-108 -180 l-114 0 l418 700 l462 0 l0 -95 l-300 0 l0 -180 l230 0 l0 -95 l-230 0 l0 -235 l310 0 l0 -95 ZM460 615 l-202 -340 l202 0 l0 340 Z" /><glyph glyph-name="Ccedilla" unicode="ç" d="M35 350 q0 152 101.5 256 q101.5 104 252.5 104 q75 0 142.5 -28.5 q67.5 -28.5 113.5 -79.5 l-67 -66 q-32 35 -83 57 q-51 22 -106 22 q-108 0 -181 -76 q-73 -76 -73 -189 q0 -117 75 -191 q75 -74 188 -74 q119 0 201 99 l71 -64 q-42 -54 -108.5 -89 q-66.5 -35 -140.5 -40 l-26 -131 l-105 0 l62 133 q-139 15 -228 114.5 q-89 99.5 -89 242.5 Z" /><glyph glyph-name="Egrave" unicode="è" d="M190 425 l230 0 l0 -95 l-230 0 l0 -235 l310 0 l0 -95 l-410 0 l0 700 l400 0 l0 -95 l-300 0 l0 -180 ZM335 750 l-65 0 l-105 150 l105 0 l65 -150 Z" /><glyph glyph-name="Eacute" unicode="é" d="M190 425 l230 0 l0 -95 l-230 0 l0 -235 l310 0 l0 -95 l-410 0 l0 700 l400 0 l0 -95 l-300 0 l0 -180 ZM320 750 l-65 0 l65 150 l105 0 l-105 -150 Z" /><glyph glyph-name="Ecircumflex" unicode="ê" d="M190 425 l230 0 l0 -95 l-230 0 l0 -235 l310 0 l0 -95 l-410 0 l0 700 l400 0 l0 -95 l-300 0 l0 -180 ZM205 750 l-65 0 l95 150 l110 0 l95 -150 l-65 0 l-85 94 l-85 -94 Z" /><glyph glyph-name="Edieresis" unicode="ë" d="M190 425 l230 0 l0 -95 l-230 0 l0 -235 l310 0 l0 -95 l-410 0 l0 700 l400 0 l0 -95 l-300 0 l0 -180 ZM153 773 q-18 18 -18 44 q0 26 18 44.5 q18 18.5 44 18.5 q26 0 44.5 -18.5 q18.5 -18.5 18.5 -44.5 q0 -26 -18.5 -44 q-18.5 -18 -44.5 -18 q-26 0 -44 18 ZM338 773 q-18 18 -18 44 q0 26 18 44.5 q18 18.5 44 18.5 q26 0 44.5 -18.5 q18.5 -18.5 18.5 -44.5 q0 -26 -18.5 -44 q-18.5 -18 -44.5 -18 q-26 0 -44 18 Z" /><glyph glyph-name="Igrave" unicode="ì" d="M90 0 l0 700 l100 0 l0 -700 l-100 0 ZM180 750 l-65 0 l-105 150 l105 0 l65 -150 Z" /><glyph glyph-name="Iacute" unicode="í" d="M90 0 l0 700 l100 0 l0 -700 l-100 0 ZM165 750 l-65 0 l65 150 l105 0 l-105 -150 Z" /><glyph glyph-name="Icircumflex" unicode="î" d="M90 0 l0 700 l100 0 l0 -700 l-100 0 ZM55 750 l-65 0 l95 150 l110 0 l95 -150 l-65 0 l-85 94 l-85 -94 Z" /><glyph glyph-name="Idieresis" unicode="ï" d="M90 0 l0 700 l100 0 l0 -700 l-100 0 ZM3 773 q-18 18 -18 44 q0 26 18 44.5 q18 18.5 44 18.5 q26 0 44.5 -18.5 q18.5 -18.5 18.5 -44.5 q0 -26 -18.5 -44 q-18.5 -18 -44.5 -18 q-26 0 -44 18 ZM188 773 q-18 18 -18 44 q0 26 18 44.5 q18 18.5 44 18.5 q26 0 44.5 -18.5 q18.5 -18.5 18.5 -44.5 q0 -26 -18.5 -44 q-18.5 -18 -44.5 -18 q-26 0 -44 18 Z" /><glyph glyph-name="Eth" unicode="ð" d="M300 0 l-210 0 l0 330 l-100 0 l0 95 l100 0 l0 275 l210 0 q150 0 240 -66 q65 -49 102.5 -123.5 q37.5 -74.5 37.5 -160.5 q0 -86 -37 -161 q-37 -75 -102 -123 q-90 -66 -241 -66 ZM495 154 q85 75 85 196 q0 121 -85 196 q-68 59 -200 59 l-105 0 l0 -180 l200 0 l0 -95 l-200 0 l0 -235 l105 0 q132 0 200 59 Z" /><glyph glyph-name="Ntilde" unicode="ñ" d="M610 0 l-420 514 l0 -514 l-100 0 l0 700 l70 0 l420 -514 l0 514 l100 0 l0 -700 l-70 0 ZM279 760 l-65 21 q2 46 29.5 77.5 q27.5 31.5 71.5 31.5 q27 0 72 -22.5 q45 -22.5 64 -22.5 q30 0 38 45 l65 -21 q-2 -46 -29.5 -77.5 q-27.5 -31.5 -71.5 -31.5 q-27 0 -72 22.5 q-45 22.5 -64 22.5 q-30 0 -38 -45 Z" /><glyph glyph-name="Ograve" unicode="ò" d="M135.5 93.5 q-100.5 103.5 -100.5 256.5 q0 153 100.5 256.5 q100.5 103.5 249.5 103.5 q149 0 249.5 -103.5 q100.5 -103.5 100.5 -256.5 q0 -153 -100.5 -256.5 q-100.5 -103.5 -249.5 -103.5 q-149 0 -249.5 103.5 ZM135 350 q0 -114 71.5 -189.5 q71.5 -75.5 178.5 -75.5 q107 0 178.5 75.5 q71.5 75.5 71.5 189.5 q0 113 -71.5 189 q-71.5 76 -178.5 76 q-107 0 -178.5 -76 q-71.5 -76 -71.5 -189 ZM420 750 l-65 0 l-105 150 l105 0 l65 -150 Z" /><glyph glyph-name="Oacute" unicode="ó" d="M135.5 93.5 q-100.5 103.5 -100.5 256.5 q0 153 100.5 256.5 q100.5 103.5 249.5 103.5 q149 0 249.5 -103.5 q100.5 -103.5 100.5 -256.5 q0 -153 -100.5 -256.5 q-100.5 -103.5 -249.5 -103.5 q-149 0 -249.5 103.5 ZM135 350 q0 -114 71.5 -189.5 q71.5 -75.5 178.5 -75.5 q107 0 178.5 75.5 q71.5 75.5 71.5 189.5 q0 113 -71.5 189 q-71.5 76 -178.5 76 q-107 0 -178.5 -76 q-71.5 -76 -71.5 -189 ZM415 750 l-65 0 l65 150 l105 0 l-105 -150 Z" /><glyph glyph-name="Ocircumflex" unicode="ô" d="M135.5 93.5 q-100.5 103.5 -100.5 256.5 q0 153 100.5 256.5 q100.5 103.5 249.5 103.5 q149 0 249.5 -103.5 q100.5 -103.5 100.5 -256.5 q0 -153 -100.5 -256.5 q-100.5 -103.5 -249.5 -103.5 q-149 0 -249.5 103.5 ZM135 350 q0 -114 71.5 -189.5 q71.5 -75.5 178.5 -75.5 q107 0 178.5 75.5 q71.5 75.5 71.5 189.5 q0 113 -71.5 189 q-71.5 76 -178.5 76 q-107 0 -178.5 -76 q-71.5 -76 -71.5 -189 ZM300 750 l-65 0 l95 150 l110 0 l95 -150 l-65 0 l-85 94 l-85 -94 Z" /><glyph glyph-name="Otilde" unicode="õ" d="M135.5 93.5 q-100.5 103.5 -100.5 256.5 q0 153 100.5 256.5 q100.5 103.5 249.5 103.5 q149 0 249.5 -103.5 q100.5 -103.5 100.5 -256.5 q0 -153 -100.5 -256.5 q-100.5 -103.5 -249.5 -103.5 q-149 0 -249.5 103.5 ZM135 350 q0 -114 71.5 -189.5 q71.5 -75.5 178.5 -75.5 q107 0 178.5 75.5 q71.5 75.5 71.5 189.5 q0 113 -71.5 189 q-71.5 76 -178.5 76 q-107 0 -178.5 -76 q-71.5 -76 -71.5 -189 ZM280 760 l-65 21 q2 46 29.5 77.5 q27.5 31.5 71.5 31.5 q27 0 72 -22.5 q45 -22.5 64 -22.5 q30 0 38 45 l65 -21 q-2 -46 -29.5 -77.5 q-27.5 -31.5 -71.5 -31.5 q-27 0 -72 22.5 q-45 22.5 -64 22.5 q-30 0 -38 -45 Z" /><glyph glyph-name="Odieresis" unicode="ö" d="M135.5 93.5 q-100.5 103.5 -100.5 256.5 q0 153 100.5 256.5 q100.5 103.5 249.5 103.5 q149 0 249.5 -103.5 q100.5 -103.5 100.5 -256.5 q0 -153 -100.5 -256.5 q-100.5 -103.5 -249.5 -103.5 q-149 0 -249.5 103.5 ZM135 350 q0 -114 71.5 -189.5 q71.5 -75.5 178.5 -75.5 q107 0 178.5 75.5 q71.5 75.5 71.5 189.5 q0 113 -71.5 189 q-71.5 76 -178.5 76 q-107 0 -178.5 -76 q-71.5 -76 -71.5 -189 ZM248 773 q-18 18 -18 44 q0 26 18 44.5 q18 18.5 44 18.5 q26 0 44.5 -18.5 q18.5 -18.5 18.5 -44.5 q0 -26 -18.5 -44 q-18.5 -18 -44.5 -18 q-26 0 -44 18 ZM433 773 q-18 18 -18 44 q0 26 18 44.5 q18 18.5 44 18.5 q26 0 44.5 -18.5 q18.5 -18.5 18.5 -44.5 q0 -26 -18.5 -44 q-18.5 -18 -44.5 -18 q-26 0 -44 18 Z" /><glyph glyph-name="multiply" unicode="×" d="M129 469 l145 -145 l145 145 l64 -64 l-145 -145 l145 -145 l-64 -64 l-145 145 l-145 -145 l-64 64 l145 145 l-145 145 l64 64 Z" /><glyph glyph-name="Oslash" unicode="ø" d="M35 350 q0 153 100.5 256.5 q100.5 103.5 249.5 103.5 q108 0 194 -58 l49 58 l119 0 l-99 -119 q87 -102 87 -241 q0 -153 -100.5 -256.5 q-100.5 -103.5 -249.5 -103.5 q-107 0 -194 57 l-49 -57 l-120 0 l100 118 q-87 100 -87 242 ZM135 350 q0 -95 51 -165 l331 392 q-60 38 -132 38 q-107 0 -178.5 -76 q-71.5 -76 -71.5 -189 ZM635 350 q0 94 -52 165 l-330 -393 q59 -37 132 -37 q107 0 178.5 75.5 q71.5 75.5 71.5 189.5 Z" /><glyph glyph-name="Ugrave" unicode="ù" d="M587 82 q-86 -92 -217 -92 q-131 0 -217 92 q-73 79 -73 208 l0 410 l100 0 l0 -415 q0 -89 44 -138 q56 -62 146 -62 q90 0 146 62 q44 49 44 138 l0 415 l100 0 l0 -410 q0 -129 -73 -208 ZM405 750 l-65 0 l-105 150 l105 0 l65 -150 Z" /><glyph glyph-name="Uacute" unicode="ú" d="M587 82 q-86 -92 -217 -92 q-131 0 -217 92 q-73 79 -73 208 l0 410 l100 0 l0 -415 q0 -89 44 -138 q56 -62 146 -62 q90 0 146 62 q44 49 44 138 l0 415 l100 0 l0 -410 q0 -129 -73 -208 ZM400 750 l-65 0 l65 150 l105 0 l-105 -150 Z" /><glyph glyph-name="Ucircumflex" unicode="û" d="M587 82 q-86 -92 -217 -92 q-131 0 -217 92 q-73 79 -73 208 l0 410 l100 0 l0 -415 q0 -89 44 -138 q56 -62 146 -62 q90 0 146 62 q44 49 44 138 l0 415 l100 0 l0 -410 q0 -129 -73 -208 ZM285 750 l-65 0 l95 150 l110 0 l95 -150 l-65 0 l-85 94 l-85 -94 Z" /><glyph glyph-name="Udieresis" unicode="ü" d="M587 82 q-86 -92 -217 -92 q-131 0 -217 92 q-73 79 -73 208 l0 410 l100 0 l0 -415 q0 -89 44 -138 q56 -62 146 -62 q90 0 146 62 q44 49 44 138 l0 415 l100 0 l0 -410 q0 -129 -73 -208 ZM233 773 q-18 18 -18 44 q0 26 18 44.5 q18 18.5 44 18.5 q26 0 44.5 -18.5 q18.5 -18.5 18.5 -44.5 q0 -26 -18.5 -44 q-18.5 -18 -44.5 -18 q-26 0 -44 18 ZM418 773 q-18 18 -18 44 q0 26 18 44.5 q18 18.5 44 18.5 q26 0 44.5 -18.5 q18.5 -18.5 18.5 -44.5 q0 -26 -18.5 -44 q-18.5 -18 -44.5 -18 q-26 0 -44 18 Z" /><glyph glyph-name="Yacute" unicode="ý" d="M590 700 l-240 -380 l0 -320 l-100 0 l0 320 l-240 380 l112 0 l178 -281 l178 281 l112 0 ZM330 750 l-65 0 l65 150 l105 0 l-105 -150 Z" /><glyph glyph-name="Thorn" unicode="þ" d="M190 250 l160 0 q63 0 92 31 q28 30 28 69 q0 39 -28 69 q-29 31 -92 31 l-160 0 l0 -200 ZM190 545 l165 0 q92 0 146 -46 q69 -59 69 -149 q0 -90 -69 -149 q-54 -46 -146 -46 l-165 0 l0 -155 l-100 0 l0 700 l100 0 l0 -155 Z" /><glyph glyph-name="germandbls" unicode="ß" d="M229 12 l36 79 q25 -11 53 -11 q57 0 93.5 37.5 q36.5 37.5 36.5 92.5 q0 51 -34 88 q-39 42 -116 42 l-38 0 l0 90 l4 0 q58 0 87 26 q33 30 33 74 q0 41 -28.5 70.5 q-28.5 29.5 -69.5 29.5 q-51 0 -80 -35 q-26 -29 -26 -85 l0 -510 l-95 0 l0 510 q0 92 49 146 q58 64 148 64 q81 0 139 -55.5 q58 -55.5 58 -134.5 q0 -77 -53 -125 q54 -28 86.5 -80 q32.5 -52 32.5 -115 q0 -92 -63 -156 q-63 -64 -157 -64 q-50 0 -96 22 Z" /><glyph glyph-name="agrave" unicode="à" d="M372 550 l-65 0 l-105 150 l105 0 l65 -150 ZM428 0 l0 43 q-59 -53 -145 -53 q-66 0 -118 31 q-55 32 -87.5 88.5 q-32.5 56.5 -32.5 125.5 q0 69 33 126 q33 57 88 89 q51 30 115 30 q85 0 147 -53 l0 43 l92 0 l0 -470 l-92 0 ZM425 147 l0 176 q-51 67 -134 67 q-66 0 -108.5 -45.5 q-42.5 -45.5 -42.5 -109.5 q0 -64 44.5 -109.5 q44.5 -45.5 111.5 -45.5 q79 0 129 67 Z" /><glyph glyph-name="aacute" unicode="á" d="M317 550 l-65 0 l65 150 l105 0 l-105 -150 ZM428 0 l0 43 q-59 -53 -145 -53 q-66 0 -118 31 q-55 32 -87.5 88.5 q-32.5 56.5 -32.5 125.5 q0 69 33 126 q33 57 88 89 q51 30 115 30 q85 0 147 -53 l0 43 l92 0 l0 -470 l-92 0 ZM425 147 l0 176 q-51 67 -134 67 q-66 0 -108.5 -45.5 q-42.5 -45.5 -42.5 -109.5 q0 -64 44.5 -109.5 q44.5 -45.5 111.5 -45.5 q79 0 129 67 Z" /><glyph glyph-name="acircumflex" unicode="â" d="M222 550 l-65 0 l95 150 l110 0 l95 -150 l-65 0 l-85 94 l-85 -94 ZM428 0 l0 43 q-59 -53 -145 -53 q-66 0 -118 31 q-55 32 -87.5 88.5 q-32.5 56.5 -32.5 125.5 q0 69 33 126 q33 57 88 89 q51 30 115 30 q85 0 147 -53 l0 43 l92 0 l0 -470 l-92 0 ZM425 147 l0 176 q-51 67 -134 67 q-66 0 -108.5 -45.5 q-42.5 -45.5 -42.5 -109.5 q0 -64 44.5 -109.5 q44.5 -45.5 111.5 -45.5 q79 0 129 67 Z" /><glyph glyph-name="atilde" unicode="ã" d="M196 560 l-65 21 q2 46 29.5 77.5 q27.5 31.5 71.5 31.5 q27 0 72 -22.5 q45 -22.5 64 -22.5 q30 0 38 45 l65 -21 q-2 -46 -29.5 -77.5 q-27.5 -31.5 -71.5 -31.5 q-27 0 -72 22.5 q-45 22.5 -64 22.5 q-30 0 -38 -45 ZM428 0 l0 43 q-59 -53 -145 -53 q-66 0 -118 31 q-55 32 -87.5 88.5 q-32.5 56.5 -32.5 125.5 q0 69 33 126 q33 57 88 89 q51 30 115 30 q85 0 147 -53 l0 43 l92 0 l0 -470 l-92 0 ZM425 147 l0 176 q-51 67 -134 67 q-66 0 -108.5 -45.5 q-42.5 -45.5 -42.5 -109.5 q0 -64 44.5 -109.5 q44.5 -45.5 111.5 -45.5 q79 0 129 67 Z" /><glyph glyph-name="adieresis" unicode="ä" d="M160 573 q-18 18 -18 44 q0 26 18 44.5 q18 18.5 44 18.5 q26 0 44.5 -18.5 q18.5 -18.5 18.5 -44.5 q0 -26 -18.5 -44 q-18.5 -18 -44.5 -18 q-26 0 -44 18 ZM345 573 q-18 18 -18 44 q0 26 18 44.5 q18 18.5 44 18.5 q26 0 44.5 -18.5 q18.5 -18.5 18.5 -44.5 q0 -26 -18.5 -44 q-18.5 -18 -44.5 -18 q-26 0 -44 18 ZM428 0 l0 43 q-59 -53 -145 -53 q-66 0 -118 31 q-55 32 -87.5 88.5 q-32.5 56.5 -32.5 125.5 q0 69 33 126 q33 57 88 89 q51 30 115 30 q85 0 147 -53 l0 43 l92 0 l0 -470 l-92 0 ZM425 147 l0 176 q-51 67 -134 67 q-66 0 -108.5 -45.5 q-42.5 -45.5 -42.5 -109.5 q0 -64 44.5 -109.5 q44.5 -45.5 111.5 -45.5 q79 0 129 67 Z" /><glyph glyph-name="aring" unicode="å" d="M226.5 559.5 q-29.5 29.5 -29.5 70.5 q0 41 29.5 70.5 q29.5 29.5 70.5 29.5 q41 0 70.5 -29.5 q29.5 -29.5 29.5 -70.5 q0 -41 -29.5 -70.5 q-29.5 -29.5 -70.5 -29.5 q-41 0 -70.5 29.5 ZM268.5 658 q-11.5 -12 -11.5 -28 q0 -16 11.5 -28 q11.5 -12 28.5 -12 q17 0 28.5 12 q11.5 12 11.5 28 q0 16 -11.5 28 q-11.5 12 -28.5 12 q-17 0 -28.5 -12 ZM428 0 l0 43 q-59 -53 -145 -53 q-66 0 -118 31 q-55 32 -87.5 88.5 q-32.5 56.5 -32.5 125.5 q0 69 33 126 q33 57 88 89 q51 30 115 30 q85 0 147 -53 l0 43 l92 0 l0 -470 l-92 0 ZM425 147 l0 176 q-51 67 -134 67 q-66 0 -108.5 -45.5 q-42.5 -45.5 -42.5 -109.5 q0 -64 44.5 -109.5 q44.5 -45.5 111.5 -45.5 q79 0 129 67 Z" /><glyph glyph-name="ae" unicode="æ" d="M428 0 l0 43 q-59 -53 -145 -53 q-66 0 -118 31 q-55 32 -87.5 88.5 q-32.5 56.5 -32.5 125.5 q0 69 33 126 q33 57 88 89 q51 30 115 30 q85 0 147 -53 l0 43 l84 0 l0 -43 q59 53 141 53 q96 0 163.5 -71 q67.5 -71 67.5 -174 q0 -11 -1 -20 l-367 0 q5 -60 50.5 -101 q45.5 -41 109.5 -41 q75 0 132 64 l62 -59 q-70 -88 -192 -88 q-97 0 -166 64 l0 -54 l-84 0 ZM425 147 l0 176 q-51 67 -134 67 q-66 0 -108.5 -45.5 q-42.5 -45.5 -42.5 -109.5 q0 -64 44.5 -109.5 q44.5 -45.5 111.5 -45.5 q79 0 129 67 ZM657 397 q-47 0 -85 -28 q-38 -28 -51 -74 l264 0 q-11 45 -47.5 73.5 q-36.5 28.5 -80.5 28.5 Z" /><glyph glyph-name="ccedilla" unicode="ç" d="M432 153 l73 -53 q-26 -42 -73 -71 q-47 -29 -102 -36 l-26 -133 l-105 0 l61 133 q-95 11 -155 78.5 q-60 67.5 -60 163.5 q0 105 70 175 q70 70 175 70 q60 0 113 -27.5 q53 -27.5 87 -74.5 l-70 -59 q-51 71 -130 71 q-64 0 -107 -44 q-43 -44 -43 -111 q0 -69 44 -112 q44 -43 112 -43 q81 0 136 73 Z" /><glyph glyph-name="egrave" unicode="è" d="M327 550 l-65 0 l-105 150 l105 0 l65 -150 ZM499 215 l-362 0 q4 -60 47.5 -101 q43.5 -41 104.5 -41 q77 0 135 64 l62 -59 q-29 -38 -80 -63 q-51 -25 -118 -25 q-103 0 -173 70 q-70 70 -70 175 q0 106 64.5 175.5 q64.5 69.5 164.5 69.5 q98 0 162 -70 q64 -70 64 -175 q0 -11 -1 -20 ZM277 397 q-46 0 -83 -28.5 q-37 -28.5 -49 -73.5 l256 0 q-10 44 -45.5 73 q-35.5 29 -78.5 29 Z" /><glyph glyph-name="eacute" unicode="é" d="M302 550 l-65 0 l65 150 l105 0 l-105 -150 ZM499 215 l-362 0 q4 -60 47.5 -101 q43.5 -41 104.5 -41 q77 0 135 64 l62 -59 q-29 -38 -80 -63 q-51 -25 -118 -25 q-103 0 -173 70 q-70 70 -70 175 q0 106 64.5 175.5 q64.5 69.5 164.5 69.5 q98 0 162 -70 q64 -70 64 -175 q0 -11 -1 -20 ZM277 397 q-46 0 -83 -28.5 q-37 -28.5 -49 -73.5 l256 0 q-10 44 -45.5 73 q-35.5 29 -78.5 29 Z" /><glyph glyph-name="ecircumflex" unicode="ê" d="M192 550 l-65 0 l95 150 l110 0 l95 -150 l-65 0 l-85 94 l-85 -94 ZM499 215 l-362 0 q4 -60 47.5 -101 q43.5 -41 104.5 -41 q77 0 135 64 l62 -59 q-29 -38 -80 -63 q-51 -25 -118 -25 q-103 0 -173 70 q-70 70 -70 175 q0 106 64.5 175.5 q64.5 69.5 164.5 69.5 q98 0 162 -70 q64 -70 64 -175 q0 -11 -1 -20 ZM277 397 q-46 0 -83 -28.5 q-37 -28.5 -49 -73.5 l256 0 q-10 44 -45.5 73 q-35.5 29 -78.5 29 Z" /><glyph glyph-name="edieresis" unicode="ë" d="M135 573 q-18 18 -18 44 q0 26 18 44.5 q18 18.5 44 18.5 q26 0 44.5 -18.5 q18.5 -18.5 18.5 -44.5 q0 -26 -18.5 -44 q-18.5 -18 -44.5 -18 q-26 0 -44 18 ZM320 573 q-18 18 -18 44 q0 26 18 44.5 q18 18.5 44 18.5 q26 0 44.5 -18.5 q18.5 -18.5 18.5 -44.5 q0 -26 -18.5 -44 q-18.5 -18 -44.5 -18 q-26 0 -44 18 ZM499 215 l-362 0 q4 -60 47.5 -101 q43.5 -41 104.5 -41 q77 0 135 64 l62 -59 q-29 -38 -80 -63 q-51 -25 -118 -25 q-103 0 -173 70 q-70 70 -70 175 q0 106 64.5 175.5 q64.5 69.5 164.5 69.5 q98 0 162 -70 q64 -70 64 -175 q0 -11 -1 -20 ZM277 397 q-46 0 -83 -28.5 q-37 -28.5 -49 -73.5 l256 0 q-10 44 -45.5 73 q-35.5 29 -78.5 29 Z" /><glyph glyph-name="igrave" unicode="ì" d="M85 0 l0 470 l95 0 l0 -470 l-95 0 ZM180 550 l-65 0 l-105 150 l105 0 l65 -150 Z" /><glyph glyph-name="iacute" unicode="í" d="M85 0 l0 470 l95 0 l0 -470 l-95 0 ZM150 550 l-65 0 l65 150 l105 0 l-105 -150 Z" /><glyph glyph-name="icircumflex" unicode="î" d="M85 0 l0 470 l95 0 l0 -470 l-95 0 ZM47 550 l-65 0 l95 150 l110 0 l95 -150 l-65 0 l-85 94 l-85 -94 Z" /><glyph glyph-name="idieresis" unicode="ï" d="M85 0 l0 470 l95 0 l0 -470 l-95 0 ZM-5 573 q-18 18 -18 44 q0 26 18 44.5 q18 18.5 44 18.5 q26 0 44.5 -18.5 q18.5 -18.5 18.5 -44.5 q0 -26 -18.5 -44 q-18.5 -18 -44.5 -18 q-26 0 -44 18 ZM180 573 q-18 18 -18 44 q0 26 18 44.5 q18 18.5 44 18.5 q26 0 44.5 -18.5 q18.5 -18.5 18.5 -44.5 q0 -26 -18.5 -44 q-18.5 -18 -44.5 -18 q-26 0 -44 18 Z" /><glyph glyph-name="eth" unicode="ð" d="M262 552 l-80 -51 l-45 68 l80 51 l-59 90 l111 0 l26 -41 l80 51 l45 -68 l-80 -51 l120 -180 q71 -108 71 -186 q0 -102 -70 -173.5 q-70 -71.5 -173 -71.5 q-104 0 -173.5 71 q-69.5 71 -69.5 174 q0 103 69 174 q69 71 174 71 q7 0 23 -2 l-49 74 ZM288 390 q-64 0 -106 -45 q-42 -45 -42 -110 q0 -65 42 -110 q42 -45 106 -45 q64 0 106 45 q42 45 42 110 q0 70 -52 132 q-44 23 -96 23 Z" /><glyph glyph-name="ntilde" unicode="ñ" d="M177 470 l0 -45 q57 55 141 55 q106 0 171 -83 q46 -58 46 -167 l0 -230 l-95 0 l0 235 q0 74 -28 109 q-36 46 -97 46 q-80 0 -135 -67 l0 -323 l-95 0 l0 470 l92 0 ZM206 560 l-65 21 q2 46 29.5 77.5 q27.5 31.5 71.5 31.5 q27 0 72 -22.5 q45 -22.5 64 -22.5 q30 0 38 45 l65 -21 q-2 -46 -29.5 -77.5 q-27.5 -31.5 -71.5 -31.5 q-27 0 -72 22.5 q-45 22.5 -64 22.5 q-30 0 -38 -45 Z" /><glyph glyph-name="ograve" unicode="ò" d="M114.5 60 q-69.5 70 -69.5 175 q0 105 69.5 175 q69.5 70 173.5 70 q104 0 173.5 -70 q69.5 -70 69.5 -175 q0 -105 -69.5 -175 q-69.5 -70 -173.5 -70 q-104 0 -173.5 70 ZM182 345 q-42 -45 -42 -110 q0 -65 42 -110 q42 -45 106 -45 q64 0 106 45 q42 45 42 110 q0 65 -42 110 q-42 45 -106 45 q-64 0 -106 -45 ZM323 550 l-65 0 l-105 150 l105 0 l65 -150 Z" /><glyph glyph-name="oacute" unicode="ó" d="M114.5 60 q-69.5 70 -69.5 175 q0 105 69.5 175 q69.5 70 173.5 70 q104 0 173.5 -70 q69.5 -70 69.5 -175 q0 -105 -69.5 -175 q-69.5 -70 -173.5 -70 q-104 0 -173.5 70 ZM182 345 q-42 -45 -42 -110 q0 -65 42 -110 q42 -45 106 -45 q64 0 106 45 q42 45 42 110 q0 65 -42 110 q-42 45 -106 45 q-64 0 -106 -45 ZM318 550 l-65 0 l65 150 l105 0 l-105 -150 Z" /><glyph glyph-name="ocircumflex" unicode="ô" d="M114.5 60 q-69.5 70 -69.5 175 q0 105 69.5 175 q69.5 70 173.5 70 q104 0 173.5 -70 q69.5 -70 69.5 -175 q0 -105 -69.5 -175 q-69.5 -70 -173.5 -70 q-104 0 -173.5 70 ZM182 345 q-42 -45 -42 -110 q0 -65 42 -110 q42 -45 106 -45 q64 0 106 45 q42 45 42 110 q0 65 -42 110 q-42 45 -106 45 q-64 0 -106 -45 ZM203 550 l-65 0 l95 150 l110 0 l95 -150 l-65 0 l-85 94 l-85 -94 Z" /><glyph glyph-name="otilde" unicode="õ" d="M114.5 60 q-69.5 70 -69.5 175 q0 105 69.5 175 q69.5 70 173.5 70 q104 0 173.5 -70 q69.5 -70 69.5 -175 q0 -105 -69.5 -175 q-69.5 -70 -173.5 -70 q-104 0 -173.5 70 ZM182 345 q-42 -45 -42 -110 q0 -65 42 -110 q42 -45 106 -45 q64 0 106 45 q42 45 42 110 q0 65 -42 110 q-42 45 -106 45 q-64 0 -106 -45 ZM184 560 l-65 21 q2 46 29.5 77.5 q27.5 31.5 71.5 31.5 q27 0 72 -22.5 q45 -22.5 64 -22.5 q30 0 38 45 l65 -21 q-2 -46 -29.5 -77.5 q-27.5 -31.5 -71.5 -31.5 q-27 0 -72 22.5 q-45 22.5 -64 22.5 q-30 0 -38 -45 Z" /><glyph glyph-name="odieresis" unicode="ö" d="M114.5 60 q-69.5 70 -69.5 175 q0 105 69.5 175 q69.5 70 173.5 70 q104 0 173.5 -70 q69.5 -70 69.5 -175 q0 -105 -69.5 -175 q-69.5 -70 -173.5 -70 q-104 0 -173.5 70 ZM182 345 q-42 -45 -42 -110 q0 -65 42 -110 q42 -45 106 -45 q64 0 106 45 q42 45 42 110 q0 65 -42 110 q-42 45 -106 45 q-64 0 -106 -45 ZM151 573 q-18 18 -18 44 q0 26 18 44.5 q18 18.5 44 18.5 q26 0 44.5 -18.5 q18.5 -18.5 18.5 -44.5 q0 -26 -18.5 -44 q-18.5 -18 -44.5 -18 q-26 0 -44 18 ZM336 573 q-18 18 -18 44 q0 26 18 44.5 q18 18.5 44 18.5 q26 0 44.5 -18.5 q18.5 -18.5 18.5 -44.5 q0 -26 -18.5 -44 q-18.5 -18 -44.5 -18 q-26 0 -44 18 Z" /><glyph glyph-name="divide" unicode="÷" d="M50 305 l440 0 l0 -90 l-440 0 l0 90 ZM220.5 50.5 q-20.5 20.5 -20.5 49.5 q0 29 20.5 49.5 q20.5 20.5 49.5 20.5 q29 0 49.5 -20.5 q20.5 -20.5 20.5 -49.5 q0 -29 -20.5 -49.5 q-20.5 -20.5 -49.5 -20.5 q-29 0 -49.5 20.5 ZM220.5 370.5 q-20.5 20.5 -20.5 49.5 q0 29 20.5 49.5 q20.5 20.5 49.5 20.5 q29 0 49.5 -20.5 q20.5 -20.5 20.5 -49.5 q0 -29 -20.5 -49.5 q-20.5 -20.5 -49.5 -20.5 q-29 0 -49.5 20.5 Z" /><glyph glyph-name="oslash" unicode="ø" d="M45 235 q0 105 69.5 175 q69.5 70 173.5 70 q65 0 123 -32 l28 32 l111 0 l-74 -87 q55 -68 55 -158 q0 -105 -69.5 -175 q-69.5 -70 -173.5 -70 q-69 0 -123 31 l-26 -31 l-112 0 l72 86 q-54 67 -54 159 ZM140 235 q0 -46 22 -84 l189 225 q-30 14 -63 14 q-64 0 -106 -45 q-42 -45 -42 -110 ZM436 235 q0 45 -22 83 l-189 -225 q29 -13 63 -13 q64 0 106 45 q42 45 42 110 Z" /><glyph glyph-name="ugrave" unicode="ù" d="M340 550 l-65 0 l-105 150 l105 0 l65 -150 ZM285 -10 q-104 0 -167 79 q-43 53 -43 161 l0 240 l95 0 l0 -255 q0 -62 27 -94 q34 -41 91 -41 q75 0 132 67 l0 323 l95 0 l0 -470 l-92 0 l0 43 q-20 -20 -57 -36.5 q-37 -16.5 -81 -16.5 Z" /><glyph glyph-name="uacute" unicode="ú" d="M325 550 l-65 0 l65 150 l105 0 l-105 -150 ZM285 -10 q-104 0 -167 79 q-43 53 -43 161 l0 240 l95 0 l0 -255 q0 -62 27 -94 q34 -41 91 -41 q75 0 132 67 l0 323 l95 0 l0 -470 l-92 0 l0 43 q-20 -20 -57 -36.5 q-37 -16.5 -81 -16.5 Z" /><glyph glyph-name="ucircumflex" unicode="û" d="M210 550 l-65 0 l95 150 l110 0 l95 -150 l-65 0 l-85 94 l-85 -94 ZM285 -10 q-104 0 -167 79 q-43 53 -43 161 l0 240 l95 0 l0 -255 q0 -62 27 -94 q34 -41 91 -41 q75 0 132 67 l0 323 l95 0 l0 -470 l-92 0 l0 43 q-20 -20 -57 -36.5 q-37 -16.5 -81 -16.5 Z" /><glyph glyph-name="udieresis" unicode="ü" d="M158 573 q-18 18 -18 44 q0 26 18 44.5 q18 18.5 44 18.5 q26 0 44.5 -18.5 q18.5 -18.5 18.5 -44.5 q0 -26 -18.5 -44 q-18.5 -18 -44.5 -18 q-26 0 -44 18 ZM343 573 q-18 18 -18 44 q0 26 18 44.5 q18 18.5 44 18.5 q26 0 44.5 -18.5 q18.5 -18.5 18.5 -44.5 q0 -26 -18.5 -44 q-18.5 -18 -44.5 -18 q-26 0 -44 18 ZM285 -10 q-104 0 -167 79 q-43 53 -43 161 l0 240 l95 0 l0 -255 q0 -62 27 -94 q34 -41 91 -41 q75 0 132 67 l0 323 l95 0 l0 -470 l-92 0 l0 43 q-20 -20 -57 -36.5 q-37 -16.5 -81 -16.5 Z" /><glyph glyph-name="yacute" unicode="ý" d="M185 -240 l-101 0 l127 289 l-201 421 l102 0 l147 -310 l135 310 l100 0 l-309 -710 ZM287 550 l-65 0 l65 150 l105 0 l-105 -150 Z" /><glyph glyph-name="thorn" unicode="þ" d="M85 710 l95 0 l0 -281 q61 51 144 51 q64 0 115 -30 q55 -32 88 -89 q33 -57 33 -126 q0 -69 -32.5 -125.5 q-32.5 -56.5 -87.5 -88.5 q-52 -31 -118 -31 q-83 0 -142 51 l0 -281 l-95 0 l0 950 ZM180 323 l0 -176 q50 -67 129 -67 q67 0 111.5 45.5 q44.5 45.5 44.5 109.5 q0 64 -42.5 109.5 q-42.5 45.5 -108.5 45.5 q-83 0 -134 -67 Z" /><glyph glyph-name="ydieresis" unicode="ÿ" d="M185 -240 l-101 0 l127 289 l-201 421 l102 0 l147 -310 l135 310 l100 0 l-309 -710 ZM112 573 q-18 18 -18 44 q0 26 18 44.5 q18 18.5 44 18.5 q26 0 44.5 -18.5 q18.5 -18.5 18.5 -44.5 q0 -26 -18.5 -44 q-18.5 -18 -44.5 -18 q-26 0 -44 18 ZM297 573 q-18 18 -18 44 q0 26 18 44.5 q18 18.5 44 18.5 q26 0 44.5 -18.5 q18.5 -18.5 18.5 -44.5 q0 -26 -18.5 -44 q-18.5 -18 -44.5 -18 q-26 0 -44 18 Z" /><glyph glyph-name="dotlessi" unicode="&#x131;" d="M85 0 l0 470 l95 0 l0 -470 l-95 0 Z" /><glyph glyph-name="Lslash" unicode="&#x141;" d="M190 700 l0 -240 l150 87 l0 -108 l-150 -87 l0 -257 l310 0 l0 -95 l-410 0 l0 294 l-100 -57 l0 108 l100 57 l0 298 l100 0 Z" /><glyph glyph-name="lslash" unicode="&#x142;" d="M85 0 l0 298 l-100 -58 l0 104 l100 58 l0 308 l95 0 l0 -253 l100 58 l0 -104 l-100 -58 l0 -353 l-95 0 Z" /><glyph glyph-name="OE" unicode="&#x152;" d="M135.5 93.5 q-100.5 103.5 -100.5 256.5 q0 153 100.5 256.5 q100.5 103.5 249.5 103.5 q149 0 250 -107 l0 97 l400 0 l0 -95 l-300 0 l0 -180 l230 0 l0 -95 l-230 0 l0 -235 l310 0 l0 -95 l-410 0 l0 97 q-99 -107 -250 -107 q-149 0 -249.5 103.5 ZM206.5 160.5 q71.5 -75.5 178.5 -75.5 q107 0 178.5 75.5 q71.5 75.5 71.5 189.5 q0 113 -71.5 189 q-71.5 76 -178.5 76 q-107 0 -178.5 -76 q-71.5 -76 -71.5 -189 q0 -114 71.5 -189.5 Z" /><glyph glyph-name="oe" unicode="&#x153;" d="M890 215 l-362 0 q4 -60 47.5 -101 q43.5 -41 104.5 -41 q77 0 135 64 l62 -59 q-29 -38 -80 -63 q-51 -25 -118 -25 q-62 0 -113 27 q-51 27 -83 74 q-31 -47 -82 -74 q-51 -27 -113 -27 q-104 0 -173.5 70 q-69.5 70 -69.5 175 q0 105 69.5 175 q69.5 70 173.5 70 q123 0 193 -98 q64 98 184 98 q98 0 162 -70 q64 -70 64 -175 q0 -11 -1 -20 ZM182 345 q-42 -45 -42 -110 q0 -65 42 -110 q42 -45 106 -45 q64 0 106 45 q42 45 42 110 q0 65 -42 110 q-42 45 -106 45 q-64 0 -106 -45 ZM668 397 q-46 0 -83 -28.5 q-37 -28.5 -49 -73.5 l256 0 q-10 44 -45.5 73 q-35.5 29 -78.5 29 Z" /><glyph glyph-name="Scaron" unicode="&#x160;" d="M134 900 l65 0 l85 -94 l85 94 l65 0 l-95 -150 l-110 0 l-95 150 ZM30 107 l69 68 q74 -90 171 -90 q50 0 86 29.5 q36 29.5 36 75.5 q0 48 -36.5 77 q-36.5 29 -106 56.5 q-69.5 27.5 -98.5 46.5 q-89 59 -89 154 q0 77 60.5 131.5 q60.5 54.5 151.5 54.5 q104 0 188 -70 l-59 -73 q-57 48 -125 48 q-47 0 -81.5 -25.5 q-34.5 -25.5 -34.5 -68.5 q0 -40 37 -66.5 q37 -26.5 104.5 -54 q67.5 -27.5 97.5 -47.5 q91 -60 91 -160 q0 -91 -62 -147 q-62 -56 -155 -56 q-148 0 -245 117 Z" /><glyph glyph-name="scaron" unicode="&#x161;" d="M40 55 l49 70 q67 -52 139 -52 q33 0 57.5 16.5 q24.5 16.5 24.5 42.5 q0 15 -8 26.5 q-8 11.5 -24.5 19 q-16.5 7.5 -32 12 q-15.5 4.5 -41 11 q-25.5 6.5 -41.5 11.5 q-108 36 -108 121 q0 71 52 109 q52 38 122 38 q92 0 156 -52 l-49 -68 q-49 37 -101 37 q-36 0 -60.5 -16 q-24.5 -16 -24.5 -43 q0 -22 20.5 -33 q20.5 -11 63.5 -22 q34 -9 59 -18.5 q25 -9.5 53 -26.5 q28 -17 43.5 -43.5 q15.5 -26.5 15.5 -60.5 q0 -64 -51.5 -104 q-51.5 -40 -123.5 -40 q-110 0 -190 65 ZM82 700 l65 0 l85 -94 l85 94 l65 0 l-95 -150 l-110 0 l-95 150 Z" /><glyph glyph-name="Ydieresis" unicode="&#x178;" d="M590 700 l-240 -380 l0 -320 l-100 0 l0 320 l-240 380 l112 0 l178 -281 l178 281 l112 0 ZM163 773 q-18 18 -18 44 q0 26 18 44.5 q18 18.5 44 18.5 q26 0 44.5 -18.5 q18.5 -18.5 18.5 -44.5 q0 -26 -18.5 -44 q-18.5 -18 -44.5 -18 q-26 0 -44 18 ZM348 773 q-18 18 -18 44 q0 26 18 44.5 q18 18.5 44 18.5 q26 0 44.5 -18.5 q18.5 -18.5 18.5 -44.5 q0 -26 -18.5 -44 q-18.5 -18 -44.5 -18 q-26 0 -44 18 Z" /><glyph glyph-name="Zcaron" unicode="&#x17d;" d="M70 605 l0 95 l470 0 l0 -65 l-364 -540 l384 0 l0 -95 l-520 0 l0 65 l366 540 l-336 0 ZM150 900 l65 0 l85 -94 l85 94 l65 0 l-95 -150 l-110 0 l-95 150 Z" /><glyph glyph-name="zcaron" unicode="&#x17e;" d="M105 700 l65 0 l85 -94 l85 94 l65 0 l-95 -150 l-110 0 l-95 150 ZM40 60 l258 325 l-243 0 l0 85 l375 0 l0 -60 l-259 -325 l279 0 l0 -85 l-410 0 l0 60 Z" /><glyph glyph-name="longs" unicode="&#x17f;" d="M180 513 l0 -513 l-95 0 l0 510 q0 89 30 132 q54 78 154 78 q53 0 96 -20 l-35 -83 q-30 13 -60 13 q-47 0 -72 -33 q-18 -24 -18 -84 Z" /><glyph glyph-name="florin" unicode="&#x192;" d="M157 -44 q8 27 14.5 72.5 q6.5 45.5 9.5 81.5 q3 36 8.5 105.5 q5.5 69.5 8.5 99.5 l-152 0 l0 85 l160 0 q9 77 20 119 q21 83 61 127 q58 64 154 64 q40 0 75 -14 l-26 -83 q-24 7 -49 7 q-52 0 -83 -35 q-25 -30 -39 -81 q-11 -36 -19 -104 l152 0 l0 -85 l-161 0 q-2 -26 -7.5 -97.5 q-5.5 -71.5 -8.5 -108.5 q-3 -37 -10 -86.5 q-7 -49.5 -15 -81.5 q-21 -83 -61 -127 q-58 -64 -154 -64 q-40 0 -75 14 l26 83 q24 -7 49 -7 q52 0 83 35 q25 30 39 81 Z" /><glyph glyph-name="circumflex" unicode="&#x2c6;" d="M135 550 l-65 0 l95 150 l110 0 l95 -150 l-65 0 l-85 94 l-85 -94 Z" /><glyph glyph-name="caron" unicode="&#x2c7;" d="M70 700 l65 0 l85 -94 l85 94 l65 0 l-95 -150 l-110 0 l-95 150 Z" /><glyph glyph-name="uni02C9" unicode="&#x2c9;" d="M70 660 l300 0 l0 -85 l-300 0 l0 85 Z" /><glyph glyph-name="breve" unicode="&#x2d8;" d="M270 700 l80 0 q0 -58 -41 -99 q-41 -41 -99 -41 q-58 0 -99 41 q-41 41 -41 99 l80 0 q0 -25 17.5 -42.5 q17.5 -17.5 42.5 -17.5 q25 0 42.5 17.5 q17.5 17.5 17.5 42.5 Z" /><glyph glyph-name="dotaccent" unicode="&#x2d9;" d="M88 593 q-18 18 -18 44 q0 26 18 44.5 q18 18.5 44 18.5 q26 0 44.5 -18.5 q18.5 -18.5 18.5 -44.5 q0 -26 -18.5 -44 q-18.5 -18 -44.5 -18 q-26 0 -44 18 Z" /><glyph glyph-name="ring" unicode="&#x2da;" d="M99.5 559.5 q-29.5 29.5 -29.5 70.5 q0 41 29.5 70.5 q29.5 29.5 70.5 29.5 q41 0 70.5 -29.5 q29.5 -29.5 29.5 -70.5 q0 -41 -29.5 -70.5 q-29.5 -29.5 -70.5 -29.5 q-41 0 -70.5 29.5 ZM142 658 q-12 -12 -12 -28 q0 -16 12 -28 q12 -12 28 -12 q16 0 28 12 q12 12 12 28 q0 16 -12 28 q-12 12 -28 12 q-16 0 -28 -12 Z" /><glyph glyph-name="ogonek" unicode="&#x2db;" d="M108 10 l95 0 q-38 -52 -38 -96 q0 -21 13 -32.5 q13 -11.5 34 -11.5 q13 0 23 4 l15 -85 q-21 -9 -55 -9 q-54 0 -89.5 34.5 q-35.5 34.5 -35.5 85.5 q0 64 38 110 Z" /><glyph glyph-name="tilde" unicode="&#x2dc;" d="M135 560 l-65 21 q2 46 29.5 77.5 q27.5 31.5 71.5 31.5 q27 0 72 -22.5 q45 -22.5 64 -22.5 q30 0 38 45 l65 -21 q-2 -46 -29.5 -77.5 q-27.5 -31.5 -71.5 -31.5 q-27 0 -72 22.5 q-45 22.5 -64 22.5 q-30 0 -38 -45 Z" /><glyph glyph-name="hungarumlaut" unicode="&#x2dd;" d="M155 550 l-65 0 l65 150 l105 0 l-105 -150 ZM340 550 l-65 0 l65 150 l105 0 l-105 -150 Z" /><glyph glyph-name="uni0394" unicode="&#x394;" d="M252 700 l66 0 l247 -640 l0 -60 l-560 0 l0 60 l247 640 ZM113 90 l344 0 l-172 446 l-172 -446 Z" /><glyph glyph-name="uni03A9" unicode="&#x3a9;" d="M561 544.5 q-74 75.5 -181 75.5 q-107 0 -181 -75.5 q-74 -75.5 -74 -182.5 q0 -55 16 -106 q16 -51 38 -85 q22 -34 44.5 -60.5 q22.5 -26.5 38.5 -38.5 l16 -12 l0 -60 l-248 0 l0 90 l92 0 q-4 5 -10 13.5 q-6 8.5 -22 36 q-16 27.5 -28 57.5 q-12 30 -22 75 q-10 45 -10 90 q0 147 102 247.5 q102 100.5 248 100.5 q146 0 248 -100.5 q102 -100.5 102 -247.5 q0 -71 -23 -139 q-23 -68 -46 -101 l-23 -32 l92 0 l0 -90 l-248 0 l0 60 q6 4 16.5 12.5 q10.5 8.5 37 37.5 q26.5 29 46.5 61.5 q20 32.5 36.5 84 q16.5 51.5 16.5 106.5 q0 107 -74 182.5 Z" /><glyph glyph-name="uni03BC" unicode="&#x3bc;" d="M295 -10 q-35 0 -66.5 14 q-31.5 14 -48.5 31 l0 -275 l-95 0 l0 710 l95 0 l0 -255 q0 -62 27 -94 q34 -41 88 -41 q74 0 135 67 l0 323 l95 0 l0 -470 l-92 0 l0 43 q-20 -20 -57 -36.5 q-37 -16.5 -81 -16.5 Z" /><glyph glyph-name="pi" unicode="&#x3c0;" d="M487 68 l-54 -78 q-44 22 -58.5 61.5 q-14.5 39.5 -14.5 98.5 l0 230 l-100 0 l0 -380 l-95 0 l0 374 q-16 -3 -28 -9 q-29 -14 -55 -51 l-77 46 q33 63 102 92 q44 18 107 18 l341 0 l0 -90 l-100 0 l0 -227 q0 -25 1 -37 q1 -12 8.5 -25.5 q7.5 -13.5 22.5 -22.5 Z" /><glyph glyph-name="uni2007" unicode="&#x2007;" d="" /><glyph glyph-name="uni2008" unicode="&#x2008;" d="" /><glyph glyph-name="uni200B" unicode="&#x200b;" d="" /><glyph glyph-name="endash" unicode="&#x2013;" d="M20 295 l450 0 l0 -80 l-450 0 l0 80 Z" /><glyph glyph-name="emdash" unicode="&#x2014;" d="M20 295 l750 0 l0 -80 l-750 0 l0 80 Z" /><glyph glyph-name="quoteleft" unicode="&#x2018;" d="M160 450 l-110 0 l120 260 l65 0 l-75 -260 Z" /><glyph glyph-name="quoteright" unicode="&#x2019;" d="M125 710 l110 0 l-120 -260 l-65 0 l75 260 Z" /><glyph glyph-name="quotesinglbase" unicode="&#x201a;" d="M125 120 l110 0 l-120 -260 l-65 0 l75 260 Z" /><glyph glyph-name="quotedblleft" unicode="&#x201c;" d="M370 450 l-110 0 l120 260 l65 0 l-75 -260 ZM160 450 l-110 0 l120 260 l65 0 l-75 -260 Z" /><glyph glyph-name="quotedblright" unicode="&#x201d;" d="M125 710 l110 0 l-120 -260 l-65 0 l75 260 ZM335 710 l110 0 l-120 -260 l-65 0 l75 260 Z" /><glyph glyph-name="quotedblbase" unicode="&#x201e;" d="M125 120 l110 0 l-120 -260 l-65 0 l75 260 ZM335 120 l110 0 l-120 -260 l-65 0 l75 260 Z" /><glyph glyph-name="dagger" unicode="&#x2020;" d="M50 460 l165 0 l0 240 l95 0 l0 -240 l165 0 l0 -90 l-165 0 l0 -570 l-95 0 l0 570 l-165 0 l0 90 Z" /><glyph glyph-name="daggerdbl" unicode="&#x2021;" d="M50 460 l165 0 l0 240 l95 0 l0 -240 l165 0 l0 -90 l-165 0 l0 -150 l165 0 l0 -90 l-165 0 l0 -330 l-95 0 l0 330 l-165 0 l0 90 l165 0 l0 150 l-165 0 l0 90 Z" /><glyph glyph-name="bullet" unicode="&#x2022;" d="M139 93.5 q-59 58.5 -59 141.5 q0 83 59 141.5 q59 58.5 141 58.5 q82 0 141 -58.5 q59 -58.5 59 -141.5 q0 -83 -59 -141.5 q-59 -58.5 -141 -58.5 q-82 0 -141 58.5 Z" /><glyph glyph-name="ellipsis" unicode="&#x2026;" d="M130.5 10.5 q-20.5 20.5 -20.5 49.5 q0 29 20.5 49.5 q20.5 20.5 49.5 20.5 q29 0 49.5 -20.5 q20.5 -20.5 20.5 -49.5 q0 -29 -20.5 -49.5 q-20.5 -20.5 -49.5 -20.5 q-29 0 -49.5 20.5 ZM425.5 10.5 q-20.5 20.5 -20.5 49.5 q0 29 20.5 49.5 q20.5 20.5 49.5 20.5 q29 0 49.5 -20.5 q20.5 -20.5 20.5 -49.5 q0 -29 -20.5 -49.5 q-20.5 -20.5 -49.5 -20.5 q-29 0 -49.5 20.5 ZM720.5 10.5 q-20.5 20.5 -20.5 49.5 q0 29 20.5 49.5 q20.5 20.5 49.5 20.5 q29 0 49.5 -20.5 q20.5 -20.5 20.5 -49.5 q0 -29 -20.5 -49.5 q-20.5 -20.5 -49.5 -20.5 q-29 0 -49.5 20.5 Z" /><glyph glyph-name="perthousand" unicode="&#x2030;" d="M1103.5 306 q51.5 -54 51.5 -131 q0 -77 -51.5 -131 q-51.5 -54 -128.5 -54 q-84 0 -135 61 q-53 -61 -135 -61 q-77 0 -128.5 54 q-51.5 54 -51.5 131 q0 77 51.5 131 q51.5 54 128.5 54 q81 0 135 -61 q53 61 135 61 q77 0 128.5 -54 ZM368.5 656 q51.5 -54 51.5 -131 q0 -77 -51.5 -131 q-51.5 -54 -128.5 -54 q-77 0 -128.5 54 q-51.5 54 -51.5 131 q0 77 51.5 131 q51.5 54 128.5 54 q77 0 128.5 -54 ZM316 0 l-96 0 l409 700 l96 0 l-409 -700 ZM175 596 q-25 -29 -25 -71 q0 -42 25 -71 q25 -29 65 -29 q40 0 65 29 q25 29 25 71 q0 42 -25 71 q-25 29 -65 29 q-40 0 -65 -29 ZM640 104 q25 -29 65 -29 q40 0 65 29 q25 29 25 71 q0 42 -25 71 q-25 29 -65 29 q-40 0 -65 -29 q-25 -29 -25 -71 q0 -42 25 -71 ZM910 104 q25 -29 65 -29 q40 0 65 29 q25 29 25 71 q0 42 -25 71 q-25 29 -65 29 q-40 0 -65 -29 q-25 -29 -25 -71 q0 -42 25 -71 Z" /><glyph glyph-name="guilsinglleft" unicode="&#x2039;" d="M176 240 l154 -190 l-116 0 l-134 165 l0 50 l134 165 l116 0 l-154 -190 Z" /><glyph glyph-name="guilsinglright" unicode="&#x203a;" d="M40 50 l154 190 l-154 190 l116 0 l134 -165 l0 -50 l-134 -165 l-116 0 Z" /><glyph glyph-name="fraction" unicode="&#x2044;" d="M91 0 l-86 0 l409 700 l86 0 l-409 -700 Z" /><glyph glyph-name="uni2070" unicode="&#x2070;" d="M161 400 q60 0 60 120 q0 120 -60 120 q-56 0 -56 -120 q0 -120 56 -120 ZM261 659.5 q35 -50.5 35 -139.5 q0 -89 -35 -139.5 q-35 -50.5 -99 -50.5 q-63 0 -97.5 50.5 q-34.5 50.5 -34.5 139.5 q0 89 34.5 139.5 q34.5 50.5 97.5 50.5 q64 0 99 -50.5 Z" /><glyph glyph-name="uni2074" unicode="&#x2074;" d="M216 700 l45 0 l0 -213 l61 0 l0 -70 l-61 0 l0 -77 l-75 0 l0 77 l-161 0 l0 40 l191 243 ZM136 487 l50 0 l0 66 l-50 -66 Z" /><glyph glyph-name="uni2075" unicode="&#x2075;" d="M88 495 l-47 7 l28 198 l190 0 l0 -70 l-124 0 l-7 -50 q10 1 16 1 q54 0 90 -36.5 q36 -36.5 36 -87.5 q0 -54 -38 -90.5 q-38 -36.5 -94 -36.5 q-75 0 -113 58 l58 40 q21 -28 55 -28 q24 0 40.5 16 q16.5 16 16.5 41 q0 24 -16 41 q-16 17 -43 17 q-25 0 -48 -20 Z" /><glyph glyph-name="uni2076" unicode="&#x2076;" d="M238 700 l-75 -119 q56 -2 91 -38.5 q35 -36.5 35 -87.5 q0 -53 -38.5 -89 q-38.5 -36 -92.5 -36 q-57 0 -95 36.5 q-38 36.5 -38 88.5 q0 41 26 81 l104 164 l83 0 ZM157 512 q-21 0 -38 -10 q-19 -23 -19 -47 q0 -24 16.5 -40.5 q16.5 -16.5 41.5 -16.5 q24 0 40 16.5 q16 16.5 16 40.5 q0 24 -16 40.5 q-16 16.5 -41 16.5 Z" /><glyph glyph-name="uni2077" unicode="&#x2077;" d="M10 630 l0 70 l247 0 l0 -40 l-145 -320 l-79 0 l133 290 l-156 0 Z" /><glyph glyph-name="uni2078" unicode="&#x2078;" d="M213 454 q0 23 -16 39 q-16 16 -42 16 q-27 0 -43.5 -16 q-16.5 -16 -16.5 -39 q0 -24 16.5 -39 q16.5 -15 43.5 -15 q27 0 42.5 15 q15.5 15 15.5 39 ZM119 604 q0 -15 9.5 -25.5 q9.5 -10.5 25.5 -10.5 q17 0 26 10 q9 10 9 26 q0 36 -35 36 q-16 0 -25.5 -10 q-9.5 -10 -9.5 -26 ZM44 608 q0 43 31.5 72.5 q31.5 29.5 79.5 29.5 q46 0 77.5 -29.5 q31.5 -29.5 31.5 -72.5 q0 -36 -26 -65 q50 -37 50 -93 q0 -50 -38.5 -85 q-38.5 -35 -94.5 -35 q-57 0 -96 35 q-39 35 -39 85 q0 55 50 93 q-26 29 -26 65 Z" /><glyph glyph-name="uni2079" unicode="&#x2079;" d="M71 340 l75 119 q-56 2 -91 38.5 q-35 36.5 -35 87.5 q0 53 38.5 89 q38.5 36 92.5 36 q57 0 95 -36.5 q38 -36.5 38 -88.5 q0 -41 -26 -81 l-104 -164 l-83 0 ZM152 526 q21 0 38 10 q19 23 19 47 q0 24 -16.5 40.5 q-16.5 16.5 -41.5 16.5 q-24 0 -40 -16.5 q-16 -16.5 -16 -40.5 q0 -24 16 -40.5 q16 -16.5 41 -16.5 Z" /><glyph glyph-name="uni2080" unicode="&#x2080;" d="M161 60 q60 0 60 120 q0 120 -60 120 q-56 0 -56 -120 q0 -120 56 -120 ZM261 319.5 q35 -50.5 35 -139.5 q0 -89 -35 -139.5 q-35 -50.5 -99 -50.5 q-63 0 -97.5 50.5 q-34.5 50.5 -34.5 139.5 q0 89 34.5 139.5 q34.5 50.5 97.5 50.5 q64 0 99 -50.5 Z" /><glyph glyph-name="uni2081" unicode="&#x2081;" d="M30 229 l0 75 l110 56 l45 0 l0 -360 l-75 0 l0 266 l-80 -37 Z" /><glyph glyph-name="uni2082" unicode="&#x2082;" d="M101 255 l-70 21 q11 43 43.5 68.5 q32.5 25.5 77.5 25.5 q50 0 86 -33 q36 -33 36 -84 q0 -47 -43 -95 l-79 -88 l124 0 l0 -70 l-246 0 l0 40 l136 152 q33 35 33 61 q0 19 -13 33 q-13 14 -34 14 q-38 0 -51 -45 Z" /><glyph glyph-name="uni2083" unicode="&#x2083;" d="M20 54 l60 38 q20 -34 58 -34 q26 0 43 17.5 q17 17.5 17 42.5 q0 25 -17 43.5 q-17 18.5 -44 18.5 q-22 0 -49 -11 l0 40 l61 81 l-115 0 l0 70 l223 0 l0 -40 l-64 -88 q35 -12 57.5 -44 q22.5 -32 22.5 -70 q0 -54 -39 -91 q-39 -37 -96 -37 q-77 0 -118 64 Z" /><glyph glyph-name="uni2084" unicode="&#x2084;" d="M216 360 l45 0 l0 -213 l61 0 l0 -70 l-61 0 l0 -77 l-75 0 l0 77 l-161 0 l0 40 l191 243 ZM136 147 l50 0 l0 66 l-50 -66 Z" /><glyph glyph-name="uni2085" unicode="&#x2085;" d="M88 155 l-47 7 l28 198 l190 0 l0 -70 l-124 0 l-7 -50 q10 1 16 1 q54 0 90 -36.5 q36 -36.5 36 -87.5 q0 -54 -38 -90.5 q-38 -36.5 -94 -36.5 q-75 0 -113 58 l58 40 q21 -28 55 -28 q24 0 40.5 16 q16.5 16 16.5 41 q0 24 -16 41 q-16 17 -43 17 q-25 0 -48 -20 Z" /><glyph glyph-name="uni2086" unicode="&#x2086;" d="M238 360 l-75 -119 q56 -2 91 -38.5 q35 -36.5 35 -87.5 q0 -53 -38.5 -89 q-38.5 -36 -92.5 -36 q-57 0 -95 36.5 q-38 36.5 -38 88.5 q0 41 26 81 l104 164 l83 0 ZM157 174 q-21 0 -38 -10 q-19 -23 -19 -47 q0 -24 16.5 -40.5 q16.5 -16.5 41.5 -16.5 q24 0 40 16.5 q16 16.5 16 40.5 q0 24 -16 40.5 q-16 16.5 -41 16.5 Z" /><glyph glyph-name="uni2087" unicode="&#x2087;" d="M10 290 l0 70 l247 0 l0 -40 l-145 -320 l-79 0 l133 290 l-156 0 Z" /><glyph glyph-name="uni2088" unicode="&#x2088;" d="M213 114 q0 23 -16 39 q-16 16 -42 16 q-27 0 -43.5 -16 q-16.5 -16 -16.5 -39 q0 -24 16.5 -39 q16.5 -15 43.5 -15 q27 0 42.5 15 q15.5 15 15.5 39 ZM119 264 q0 -15 9.5 -25.5 q9.5 -10.5 25.5 -10.5 q17 0 26 10 q9 10 9 26 q0 36 -35 36 q-16 0 -25.5 -10 q-9.5 -10 -9.5 -26 ZM44 268 q0 43 31.5 72.5 q31.5 29.5 79.5 29.5 q46 0 77.5 -29.5 q31.5 -29.5 31.5 -72.5 q0 -36 -26 -65 q50 -37 50 -93 q0 -50 -38.5 -85 q-38.5 -35 -94.5 -35 q-57 0 -96 35 q-39 35 -39 85 q0 55 50 93 q-26 29 -26 65 Z" /><glyph glyph-name="uni2089" unicode="&#x2089;" d="M71 0 l75 119 q-56 2 -91 38.5 q-35 36.5 -35 87.5 q0 53 38.5 89 q38.5 36 92.5 36 q57 0 95 -36.5 q38 -36.5 38 -88.5 q0 -41 -26 -81 l-104 -164 l-83 0 ZM152 186 q21 0 38 10 q19 23 19 47 q0 24 -16.5 40.5 q-16.5 16.5 -41.5 16.5 q-24 0 -40 -16.5 q-16 -16.5 -16 -40.5 q0 -24 16 -40.5 q16 -16.5 41 -16.5 Z" /><glyph glyph-name="Euro" unicode="&#x20ac;" d="M159 350 q0 -24 1 -35 l267 0 l0 -85 l-250 0 q23 -67 70 -106 q47 -39 116 -39 q94 0 149 73 l78 -51 q-84 -117 -227 -117 q-112 0 -187.5 66 q-75.5 66 -103.5 174 l-82 0 l0 85 l68 0 q-1 11 -1 35 q0 23 1 35 l-68 0 l0 85 l82 0 q27 108 101.5 174 q74.5 66 184.5 66 q138 0 222 -117 l-78 -51 q-55 73 -144 73 q-67 0 -113 -39 q-46 -39 -68 -106 l250 0 l0 -85 l-267 0 q-1 -12 -1 -35 Z" /><glyph glyph-name="trademark" unicode="&#x2122;" d="M397 700 l46 0 l143 -216 l144 216 l45 0 l0 -383 l-72 0 l0 222 l-95 -141 l-44 0 l-94 141 l0 -222 l-73 0 l0 383 ZM70 700 l272 0 l0 -68 l-100 0 l0 -315 l-72 0 l0 315 l-100 0 l0 68 Z" /><glyph glyph-name="Omega" unicode="&#x2126;" d="M561 544.5 q-74 75.5 -181 75.5 q-107 0 -181 -75.5 q-74 -75.5 -74 -182.5 q0 -55 16 -106 q16 -51 38 -85 q22 -34 44.5 -60.5 q22.5 -26.5 38.5 -38.5 l16 -12 l0 -60 l-248 0 l0 90 l92 0 q-4 5 -10 13.5 q-6 8.5 -22 36 q-16 27.5 -28 57.5 q-12 30 -22 75 q-10 45 -10 90 q0 147 102 247.5 q102 100.5 248 100.5 q146 0 248 -100.5 q102 -100.5 102 -247.5 q0 -71 -23 -139 q-23 -68 -46 -101 l-23 -32 l92 0 l0 -90 l-248 0 l0 60 q6 4 16.5 12.5 q10.5 8.5 37 37.5 q26.5 29 46.5 61.5 q20 32.5 36.5 84 q16.5 51.5 16.5 106.5 q0 107 -74 182.5 Z" /><glyph glyph-name="arrowleft" unicode="&#x2190;" d="M374 29 l-113 0 l-201 201 l0 50 l201 201 l113 0 l-188 -186 l473 0 l0 -80 l-473 0 l188 -186 Z" /><glyph glyph-name="arrowright" unicode="&#x2192;" d="M458 29 l-113 0 l188 186 l-473 0 l0 80 l473 0 l-188 186 l113 0 l201 -201 l0 -50 l-201 -201 Z" /><glyph glyph-name="uni2196" unicode="&#x2196;" d="M140 70 l-80 80 l0 284 l35 36 l285 0 l80 -80 l-265 0 l334 -333 l-56 -57 l-333 334 l0 -264 Z" /><glyph glyph-name="uni2197" unicode="&#x2197;" d="M529 150 l-80 -80 l0 264 l-333 -334 l-56 57 l334 333 l-265 0 l80 80 l285 0 l35 -36 l0 -284 Z" /><glyph glyph-name="uni2198" unicode="&#x2198;" d="M449 400 l80 -80 l0 -284 l-35 -36 l-285 0 l-80 80 l265 0 l-334 333 l56 57 l333 -334 l0 264 Z" /><glyph glyph-name="uni2199" unicode="&#x2199;" d="M60 320 l80 80 l0 -264 l333 334 l56 -57 l-334 -333 l265 0 l-80 -80 l-285 0 l-35 36 l0 284 Z" /><glyph glyph-name="partialdiff" unicode="&#x2202;" d="M158 710 l111 0 l191 -289 q71 -108 71 -186 q0 -102 -70 -173.5 q-70 -71.5 -173 -71.5 q-104 0 -173.5 71 q-69.5 71 -69.5 174 q0 103 69 174 q69 71 174 71 q7 0 23 -2 l-153 232 ZM288 390 q-64 0 -106 -45 q-42 -45 -42 -110 q0 -65 42 -110 q42 -45 106 -45 q64 0 106 45 q42 45 42 110 q0 70 -52 132 q-44 23 -96 23 Z" /><glyph glyph-name="Delta" unicode="&#x2206;" d="M252 700 l66 0 l247 -640 l0 -60 l-560 0 l0 60 l247 640 ZM113 90 l344 0 l-172 446 l-172 -446 Z" /><glyph glyph-name="product" unicode="&#x220f;" d="M205 0 l-95 0 l0 610 l-100 0 l0 90 l550 0 l0 -90 l-100 0 l0 -610 l-95 0 l0 610 l-160 0 l0 -610 Z" /><glyph glyph-name="summation" unicode="&#x2211;" d="M430 500 l0 110 l-267 0 l211 -220 l0 -60 l-224 -240 l290 0 l0 110 l90 0 l0 -200 l-530 0 l0 60 l280 300 l-270 280 l0 60 l510 0 l0 -200 l-90 0 Z" /><glyph glyph-name="minus" unicode="&#x2212;" d="M50 305 l440 0 l0 -90 l-440 0 l0 90 Z" /><glyph glyph-name="fraction" unicode="&#x2215;" d="M91 0 l-86 0 l409 700 l86 0 l-409 -700 Z" /><glyph glyph-name="periodcentered" unicode="&#x2219;" d="M120.5 185.5 q-20.5 20.5 -20.5 49.5 q0 29 20.5 49.5 q20.5 20.5 49.5 20.5 q29 0 49.5 -20.5 q20.5 -20.5 20.5 -49.5 q0 -29 -20.5 -49.5 q-20.5 -20.5 -49.5 -20.5 q-29 0 -49.5 20.5 Z" /><glyph glyph-name="radical" unicode="&#x221a;" d="M494 700 l96 0 l-249 -700 l-66 0 l-156 380 l-109 0 l0 90 l170 0 l125 -304 l189 534 Z" /><glyph glyph-name="infinity" unicode="&#x221e;" d="M688 419 q52 -55 52 -142 q0 -87 -52 -142 q-52 -55 -135 -55 q-105 0 -168 107 q-63 -107 -168 -107 q-83 0 -135 55 q-52 55 -52 142 q0 87 52 142 q52 55 135 55 q103 0 168 -107 q30 50 69.5 78.5 q39.5 28.5 98.5 28.5 q83 0 135 -55 ZM620.5 200 q24.5 30 24.5 77 q0 47 -24.5 77 q-24.5 30 -67.5 30 q-41 0 -67.5 -27 q-26.5 -27 -53.5 -80 q27 -53 53.5 -80 q26.5 -27 67.5 -27 q43 0 67.5 30 ZM217 384 q-43 0 -67.5 -30 q-24.5 -30 -24.5 -77 q0 -47 24.5 -77 q24.5 -30 67.5 -30 q40 0 67 27.5 q27 27.5 54 79.5 q-27 52 -54 79.5 q-27 27.5 -67 27.5 Z" /><glyph glyph-name="integral" unicode="&#x222b;" d="M157 -44 q18 61 34.5 276.5 q16.5 215.5 34.5 286.5 q21 83 61 127 q58 64 154 64 q40 0 75 -14 l-26 -83 q-24 7 -49 7 q-52 0 -83 -35 q-25 -30 -39 -81 q-18 -61 -34.5 -276.5 q-16.5 -215.5 -34.5 -286.5 q-21 -83 -61 -127 q-58 -64 -154 -64 q-40 0 -75 14 l26 83 q24 -7 49 -7 q52 0 83 35 q25 30 39 81 Z" /><glyph glyph-name="approxequal" unicode="&#x2248;" d="M468 428 l77 -39 q-51 -128 -152 -128 q-40 0 -78.5 22 q-38.5 22 -69.5 44 q-31 22 -54 22 q-45 0 -79 -77 l-77 39 q51 128 152 128 q40 0 78.5 -22 q38.5 -22 69.5 -44 q31 -22 54 -22 q45 0 79 77 ZM468 248 l77 -39 q-51 -128 -152 -128 q-40 0 -78.5 22 q-38.5 22 -69.5 44 q-31 22 -54 22 q-45 0 -79 -77 l-77 39 q51 128 152 128 q40 0 78.5 -22 q38.5 -22 69.5 -44 q31 -22 54 -22 q45 0 79 77 Z" /><glyph glyph-name="notequal" unicode="&#x2260;" d="M50 395 l245 0 l61 105 l104 0 l-61 -105 l91 0 l0 -90 l-142 0 l-52 -90 l194 0 l0 -90 l-246 0 l-60 -105 l-104 0 l60 105 l-90 0 l0 90 l142 0 l52 90 l-194 0 l0 90 Z" /><glyph glyph-name="lessequal" unicode="&#x2264;" d="M50 110 l440 0 l0 -90 l-440 0 l0 90 ZM244 320 l246 -83 l0 -95 l-440 148 l0 60 l440 148 l0 -95 l-246 -83 Z" /><glyph glyph-name="greaterequal" unicode="&#x2265;" d="M55 110 l440 0 l0 -90 l-440 0 l0 90 ZM55 237 l246 83 l-246 83 l0 95 l440 -148 l0 -60 l-440 -148 l0 95 Z" /><glyph glyph-name="lozenge" unicode="&#x25ca;" d="M242 0 l-207 320 l0 60 l207 320 l66 0 l207 -320 l0 -60 l-207 -320 l-66 0 ZM275 587 l-152 -237 l152 -237 l152 237 l-152 237 Z" /><glyph glyph-name="uniFB00" unicode="&#xfb00;" d="M725 713 l-20 -87 q-14 4 -35 4 q-47 0 -72 -33 q-18 -24 -18 -84 l0 -43 l145 0 l0 -85 l-145 0 l0 -385 l-95 0 l0 385 l-255 0 l0 -385 l-95 0 l0 385 l-110 0 l0 85 l110 0 l0 40 q0 89 30 132 q54 78 154 78 q33 0 56 -7 l-20 -87 q-14 4 -35 4 q-47 0 -72 -33 q-18 -24 -18 -84 l0 -43 l255 0 l0 40 q0 89 30 132 q54 78 154 78 q33 0 56 -7 Z" /><glyph glyph-name="fi" unicode="&#xfb01;" d="M488 603 q-18 18 -18 44 q0 26 18 44.5 q18 18.5 44 18.5 q26 0 44.5 -18.5 q18.5 -18.5 18.5 -44.5 q0 -26 -18.5 -44 q-18.5 -18 -44.5 -18 q-26 0 -44 18 ZM135 470 l0 40 q0 89 30 132 q54 78 154 78 q33 0 56 -7 l-20 -87 q-14 4 -35 4 q-47 0 -72 -33 q-18 -24 -18 -84 l0 -43 l350 0 l0 -470 l-95 0 l0 385 l-255 0 l0 -385 l-95 0 l0 385 l-110 0 l0 85 l110 0 Z" /><glyph glyph-name="fl" unicode="&#xfb02;" d="M135 470 l0 40 q0 89 30 132 q54 78 154 78 q33 0 56 -7 l-20 -87 q-14 4 -35 4 q-47 0 -72 -33 q-18 -24 -18 -84 l0 -43 l255 0 l0 240 l95 0 l0 -710 l-95 0 l0 385 l-255 0 l0 -385 l-95 0 l0 385 l-110 0 l0 85 l110 0 Z" /><glyph glyph-name="uniFB03" unicode="&#xfb03;" d="M725 713 l-20 -87 q-14 4 -35 4 q-47 0 -72 -33 q-18 -24 -18 -84 l0 -43 l350 0 l0 -470 l-95 0 l0 385 l-255 0 l0 -385 l-95 0 l0 385 l-255 0 l0 -385 l-95 0 l0 385 l-110 0 l0 85 l110 0 l0 40 q0 89 30 132 q54 78 154 78 q33 0 56 -7 l-20 -87 q-14 4 -35 4 q-47 0 -72 -33 q-18 -24 -18 -84 l0 -43 l255 0 l0 40 q0 89 30 132 q54 78 154 78 q33 0 56 -7 ZM838 603 q-18 18 -18 44 q0 26 18 44.5 q18 18.5 44 18.5 q26 0 44.5 -18.5 q18.5 -18.5 18.5 -44.5 q0 -26 -18.5 -44 q-18.5 -18 -44.5 -18 q-26 0 -44 18 Z" /><glyph glyph-name="uniFB04" unicode="&#xfb04;" d="M725 713 l-20 -87 q-14 4 -35 4 q-47 0 -72 -33 q-18 -24 -18 -84 l0 -43 l255 0 l0 240 l95 0 l0 -710 l-95 0 l0 385 l-255 0 l0 -385 l-95 0 l0 385 l-255 0 l0 -385 l-95 0 l0 385 l-110 0 l0 85 l110 0 l0 40 q0 89 30 132 q54 78 154 78 q33 0 56 -7 l-20 -87 q-14 4 -35 4 q-47 0 -72 -33 q-18 -24 -18 -84 l0 -43 l255 0 l0 40 q0 89 30 132 q54 78 154 78 q33 0 56 -7 Z" /></font>
</defs>
</svg>
